/* XPM */
static const char * matroska_xpm[] = {
"32 32 160 2",
"  	c None",
". 	c #121212",
"+ 	c #090909",
"@ 	c #0A0A0A",
"# 	c #4D4D4D",
"$ 	c #F0F0F0",
"% 	c #FFFFFF",
"& 	c #FAFAFA",
"* 	c #6D6D6D",
"= 	c #080808",
"- 	c #727272",
"; 	c #7D7D7D",
"> 	c #0B0B0B",
", 	c #878787",
"' 	c #ABABAB",
") 	c #000000",
"! 	c #212121",
"~ 	c #D5D5D5",
"{ 	c #EDEDED",
"] 	c #484848",
"^ 	c #6C6C6C",
"/ 	c #777777",
"( 	c #010101",
"_ 	c #E7E7E7",
": 	c #F9F9F9",
"< 	c #616161",
"[ 	c #020202",
"} 	c #B0B0B0",
"| 	c #191919",
"1 	c #7B7B7B",
"2 	c #F4F4F4",
"3 	c #545454",
"4 	c #7C7C7C",
"5 	c #B8B8B8",
"6 	c #7E7E7E",
"7 	c #252525",
"8 	c #FCFCFC",
"9 	c #F2F2F2",
"0 	c #525252",
"a 	c #353535",
"b 	c #868686",
"c 	c #343434",
"d 	c #FEFEFE",
"e 	c #555555",
"f 	c #151515",
"g 	c #181818",
"h 	c #DEDEDE",
"i 	c #404040",
"j 	c #8D8D8D",
"k 	c #7F7F7F",
"l 	c #4C4C4C",
"m 	c #F3F3F3",
"n 	c #515151",
"o 	c #030303",
"p 	c #595959",
"q 	c #101010",
"r 	c #0D0D0D",
"s 	c #9A9A9A",
"t 	c #CECECE",
"u 	c #898989",
"v 	c #373737",
"w 	c #B3B3B3",
"x 	c #C9C9C9",
"y 	c #858585",
"z 	c #1D1D1D",
"A 	c #070707",
"B 	c #F7F7F7",
"C 	c #F8F8F8",
"D 	c #F5F5F5",
"E 	c #CDCDCD",
"F 	c #8A8A8A",
"G 	c #161616",
"H 	c #8E8E8E",
"I 	c #434343",
"J 	c #CCCCCC",
"K 	c #131313",
"L 	c #8C8C8C",
"M 	c #7A7A7A",
"N 	c #4F4F4F",
"O 	c #D6D6D6",
"P 	c #C5C5C5",
"Q 	c #232323",
"R 	c #2A2A2A",
"S 	c #ADADAD",
"T 	c #6E6E6E",
"U 	c #939393",
"V 	c #4B4B4B",
"W 	c #D9D9D9",
"X 	c #FDFDFD",
"Y 	c #707070",
"Z 	c #828282",
"` 	c #717171",
" .	c #747474",
"..	c #F1F1F1",
"+.	c #141414",
"@.	c #BCBCBC",
"#.	c #FBFBFB",
"$.	c #6A6A6A",
"%.	c #666666",
"&.	c #505050",
"*.	c #E1E1E1",
"=.	c #F6F6F6",
"-.	c #686868",
";.	c #1A1A1A",
">.	c #CBCBCB",
",.	c #B2B2B2",
"'.	c #A5A5A5",
").	c #EAEAEA",
"!.	c #EBEBEB",
"~.	c #3F3F3F",
"{.	c #959595",
"].	c #B5B5B5",
"^.	c #6B6B6B",
"/.	c #636363",
"(.	c #2C2C2C",
"_.	c #E3E3E3",
":.	c #272727",
"<.	c #E2E2E2",
"[.	c #AEAEAE",
"}.	c #BBBBBB",
"|.	c #BFBFBF",
"1.	c #E4E4E4",
"2.	c #909090",
"3.	c #787878",
"4.	c #282828",
"5.	c #C0C0C0",
"6.	c #3C3C3C",
"7.	c #333333",
"8.	c #0C0C0C",
"9.	c #C4C4C4",
"0.	c #DDDDDD",
"a.	c #E8E8E8",
"b.	c #565656",
"c.	c #1C1C1C",
"d.	c #EFEFEF",
"e.	c #424242",
"f.	c #797979",
"g.	c #040404",
"h.	c #454545",
"i.	c #9E9E9E",
"j.	c #A9A9A9",
"k.	c #5D5D5D",
"l.	c #111111",
"m.	c #DCDCDC",
"n.	c #8F8F8F",
"o.	c #DADADA",
"p.	c #474747",
"q.	c #D4D4D4",
"r.	c #1B1B1B",
"s.	c #D3D3D3",
"t.	c #242424",
"u.	c #393939",
"v.	c #C1C1C1",
"w.	c #989898",
"x.	c #C3C3C3",
"y.	c #DFDFDF",
"z.	c #4A4A4A",
"A.	c #575757",
"B.	c #292929",
"C.	c #9C9C9C",
". + @ @ @ @ @ @ + # $ % & * + = - % % % % % ; + > , & % % % % ' ",
"@ ) ) ) ) ) ) ) ) ! ~ % { ] ) ) ^ % % % % % / ( @ _ % % % % : < ",
"@ ) ) ) ) ) ) ) ) [ } % ~ | ) ) ^ % % % % % 1 ( | & % % % % 2 3 ",
"@ ) ) ) ) ) ) ) ) ) 4 % 5 [ ) ) ^ % % % % % 6 [ 7 8 % % % % 9 0 ",
"@ ) ) ) ) ) ) ) ) ) a 8 b ) ) ) ^ % % % % % 6 [ c d % % % % 2 e ",
"@ ) ) ) ) ( f ( ) ) g h i ) ) ) j % % % % % k [ l d % % % % m n ",
"@ ) ) ) ) o p q ) ) r s ! ) ) ) t % % % % % u v w % % % % % x 7 ",
"@ ) ) ) ) ) y ] ) ) [ z A ) ) > B % % % % % & C d % % D E F G A ",
"@ ) ) ) ) ) H b ) ) ) ) ) ) ) I % % % % % % & & % % % D J b K A ",
"@ ) ) ) ) ) L } = ) ) ) ) ) ) y % % % % % d M N O % % % % % P Q ",
"@ ) ) ) ) ) F O R ) ) ) ) ) > S % % % % % 8 T [ U % % % % % 9 n ",
"@ ) ) ) ) ) M 2 V ) ) ) ) ) R W % % % % % X Y ( j % % % % % 2 e ",
"@ ) ) ) ) ) Y 8 Z ) ) ) ) ) I 2 % % % % % d - ( j % % % % % m 0 ",
"@ ) ) ) ) ) ` 8 x ) ) ) ) )  .d % % % % % 8 * ( L % % % % % 2 3 ",
"@ ) ) ) ) ) ` 8 ..+.) ) ) ) @.% % % % % % #.$.( T % % % % % #.%.",
"= ) ) ) ) ) ` 8 & &.) ) ) = *.=.$ $ $ $ $ $ -.( ;.>...#.% % % ,.",
"'.).!.!.!.!.2 % d L [ ) ) ~.m * ) ) ) ) ) ) ) ) ) ) A {.d % % O ",
"-.D % % % % % % % ].. ) ) ^.& * ) ) ) ) ) ) ) ) ) ) ) /.B % % O ",
"(.W % % % % % % % _.(.) o H d * ) ) ) ) ) ) ) ) ) ) ) :.<.% % O ",
"> [.% % % % % % % : ] ) +.}.% * ) ) ) ) ) Q A ) ) ) ) o |.% % O ",
"( ^ % % % % % % % % b ) :.1.% * ) ) ) ) ) 2.:.) ) ) ) ) 3.% % O ",
"( 4.9 % % % % % % % 5.) 6.: % * ) ) ) ) G J I ) ) ) ) ) 7.m % O ",
"( 8.9.% % % % % % % 0.r ^.% % * ) ) ) ) V a.b.) ) ) ) ) c.J % O ",
"( o 4 #.% % % % % % d.e.'.% % * ) ) ) ( f.& / ( ) ) ) ) g.H d O ",
"( ) h.!.% % % % % % C -.9.% % * ) ) ) + i.% j.g.) ) ) ) ) k.C O ",
"( ) l.>.% % % % % % X i.h % % * ) ) ) g E d m.= ) ) ) ) ) l._ O ",
"( ) ( n.% % % % % % % o.m % % * ) ) ) = I N p.o ) ) ) ) ) ) @.O ",
"( ) ) e.& % % % % % % 8 d % % * ) ) ) ) ) ) ) ) ) ) ) ) ) ) $.q.",
"( ) ) r.s.% % % % % % % % % % * ) ) ) o z t.t.= ) ) ) ) ) ) u.v.",
"( ) ) A w.d % % % % % % % % % * ) ) ) ;.x.y.h z.) ) ) ) ) ) G w.",
"( ) ) ) A.2 % % % % % % % % % * ) ) ) B.D % % k ) ) ) ) ) ) ( Y ",
"( ( ( ( r._ % % % % % % % % % - = @ = l X % % C.+ @ @ @ @ @ + ~."};
