/* XPM */
static const char * mkvinfo_xpm[] = {
/* columns rows colors chars-per-pixel */
"64 64 250 2",
"   c #282726",
".  c #282826",
"X  c #302F2D",
"o  c #32312F",
"O  c #3A3937",
"+  c #41403D",
"@  c #15155D",
"#  c #0F0F6E",
"$  c #1B366E",
"%  c #183779",
"&  c #2F3B6F",
"*  c #2C406B",
"=  c #3A496A",
"-  c #444442",
";  c #4B4947",
":  c #504E4B",
">  c #54524F",
",  c #555554",
"<  c #5A5957",
"1  c #5C5C5C",
"2  c #615F5C",
"3  c #64625E",
"4  c #444A6D",
"5  c #455474",
"6  c #595C73",
"7  c #5F687A",
"8  c #626262",
"9  c #6B6965",
"0  c #676868",
"q  c #6C6B6B",
"w  c #71716E",
"e  c #6A6B74",
"r  c #747373",
"t  c #7B7976",
"y  c #777578",
"u  c #7C7C7C",
"i  c #930A0A",
"p  c #A00101",
"a  c #BF0101",
"s  c #B10C0C",
"d  c #942E2C",
"f  c #C00000",
"g  c #C00C0C",
"h  c #C21615",
"j  c #C01D1C",
"k  c #C32523",
"l  c #C33634",
"z  c #C5403D",
"x  c #817E7B",
"c  c #9F7571",
"v  c #C64744",
"b  c #C75956",
"n  c #C9615E",
"m  c #CA736F",
"M  c #85837D",
"N  c #03039C",
"B  c #14149C",
"V  c #1A3D84",
"C  c #143B89",
"Z  c #0101A4",
"A  c #0C0CA5",
"S  c #1414A7",
"D  c #1B1AA8",
"F  c #2827AA",
"G  c #302FAB",
"H  c #3736A9",
"J  c #1C4087",
"K  c #1E438A",
"L  c #154296",
"P  c #22458B",
"I  c #25478B",
"U  c #2B4C8D",
"Y  c #324D83",
"T  c #294D91",
"R  c #2E5395",
"E  c #355795",
"W  c #2D698C",
"Q  c #3C629D",
"!  c #2153AD",
"~  c #2357B1",
"^  c #3A65A5",
"/  c #2760BF",
"(  c #4F5D8C",
")  c #4B7882",
"_  c #536A98",
"`  c #737985",
"'  c #6E7493",
"]  c #4948B0",
"[  c #5A58B2",
"{  c #605EA3",
"}  c #466BA3",
"|  c #4B74AA",
" . c #5474A8",
".. c #5776A9",
"X. c #4C7CB5",
"o. c #6975A2",
"O. c #7876B7",
"+. c #2C5BC6",
"@. c #3156C4",
"#. c #2662C5",
"$. c #2661C9",
"%. c #2A65C8",
"&. c #3666C7",
"*. c #3874CB",
"=. c #4B71C8",
"-. c #4378CB",
";. c #538895",
":. c #798297",
">. c #588BA8",
",. c #5582B5",
"<. c #5A86B8",
"1. c #699CA8",
"2. c #6E8CB5",
"3. c #6589B8",
"4. c #7694BD",
"5. c #59A7BA",
"6. c #75A5AF",
"7. c #6BA8B6",
"8. c #598DC5",
"9. c #528CCB",
"0. c #6799C7",
"q. c #789BC8",
"w. c #6997D1",
"e. c #6CA4C4",
"r. c #73A4CD",
"t. c #70ADD1",
"y. c #76AAD5",
"u. c #6CB2D1",
"i. c #7AB7D8",
"p. c #7BB4DB",
"a. c #7CC7D9",
"s. c #848483",
"d. c #888682",
"f. c #8C8985",
"g. c #86878A",
"h. c #8B8B8B",
"j. c #918E89",
"k. c #93918E",
"l. c #848A97",
"z. c #949494",
"x. c #989691",
"c. c #9B9995",
"v. c #95979A",
"b. c #9C9C9B",
"n. c #A19E99",
"m. c #A4A29D",
"M. c #A8A59E",
"N. c #868FAA",
"B. c #9B9BA4",
"V. c #8987BA",
"C. c #8B98B6",
"Z. c #9B98BC",
"A. c #A19EBF",
"S. c #95AAB6",
"D. c #A4A4A4",
"F. c #ACAAA4",
"G. c #A3A5A9",
"H. c #A7A8A8",
"J. c #ACACAC",
"K. c #B1AEA7",
"L. c #B2AFA9",
"P. c #B4B1AC",
"I. c #B9B6AF",
"U. c #ABA9BA",
"Y. c #AFB2B6",
"T. c #B4B4B4",
"R. c #BAB7B1",
"E. c #BCB9B3",
"W. c #B7B7B9",
"Q. c #BCBCBC",
"!. c #CD8C87",
"~. c #CE9993",
"^. c #D0A59E",
"/. c #CCACA5",
"(. c #C3BEB9",
"). c #C5C3BD",
"_. c #839CC6",
"`. c #8DB0C8",
"'. c #89B7D8",
"]. c #83BCDC",
"[. c #93B7D6",
"{. c #ADAAC1",
"}. c #A8B2CD",
"|. c #B9B8C4",
" X c #85BEE2",
".X c #C1BDC4",
"XX c #93C6CF",
"oX c #8AC5D9",
"OX c #97C9DB",
"+X c #BFC1C2",
"@X c #A7C6D7",
"#X c #87C1E4",
"$X c #8BC5E6",
"%X c #8CC8E5",
"&X c #8FCAE9",
"*X c #97C9E6",
"=X c #92CDEA",
"-X c #8FD2EE",
";X c #9BD9E6",
":X c #95D2ED",
">X c #9BD5EE",
",X c #98D8F1",
"<X c #9DD9F1",
"1X c #A0CFEA",
"2X c #B8CBE4",
"3X c #A3D4ED",
"4X c #AAD9EA",
"5X c #B3DBEA",
"6X c #A2DDF3",
"7X c #9AE7FA",
"8X c #A5E3F6",
"9X c #A9E4F6",
"0X c #A5E6F8",
"qX c #ABE6F8",
"wX c #A4EAFB",
"eX c #ACECFB",
"rX c #B3E2F3",
"tX c #BCE6F6",
"yX c #B3ECFB",
"uX c #BBEEFB",
"iX c #B5F1FD",
"pX c #BBF2FD",
"aX c #C3C3C4",
"sX c #C9C9C8",
"dX c #CBCBCB",
"fX c #D2D0CF",
"gX c #CACCD1",
"hX c #CED1D2",
"jX c #CBD1DF",
"kX c #D3D4D4",
"lX c #D5DADC",
"zX c #D8D8D8",
"xX c #DBDBDB",
"cX c #E3E1DE",
"vX c #C9D4E4",
"bX c #DBDDE1",
"nX c #DDE2E3",
"mX c #C5ECF9",
"MX c #C5F2FC",
"NX c #CCF4FD",
"BX c #D3F6FE",
"VX c #D7F8FE",
"CX c #DBF9FE",
"ZX c #E4E4E4",
"AX c #E5E9EA",
"SX c #ECECED",
"DX c #F0EFED",
"FX c #E5F7FA",
"GX c #F3F3F3",
"HX c #FFFFFF",
/* pixels */
"HXHXHXHXHXHXHXHXHXHXHXHXHXHXHXHXHXHXHXHXHXHXHXHXHXHXHXHXHXHXHXHXHXHXHXHXHXHXHXHXHXHXHXHXHXHXHXHXHXHXHXHXHXHXHXHXHXHXHXHXHXHXHXHX",
"HXHXHXHXHXHXHXHXHXHXHXHXHXHXHXHXHXHXDXDXGXGXGXHXHXHXHXHXHXHXHXHXHXHXHXHXHXHXHXHXHXHXHXHXHXHXHXHXHXHXHXHXHXHXHXHXHXHXHXHXHXHXHXHX",
"HXHXHXHXHXHXHXHXHXHXHXHXHXHXAXxXzXhXfXkXhXkXkXzXxXAXGXHXHXHXHXHXHXHXHXHXHXHXHXHXHXHXHXHXHXHXHXHXHXHXHXHXHXHXHXHXHXHXHXHXHXHXHXHX",
"HXHXHXHXHXHXHXHXHXHXHXGXzXsXfXxXxXxXkXfXsXkXzXzXxXhXfXzXGXHXHXHXHXHXHXHXHXHXHXHXHXHXHXHXHXHXHXHXHXHXHXHXHXHXHXHXHXHXHXHXHXHXHXHX",
"HXHXHXHXHXHXHXHXHXHXkXaXsXxXkXP.g.7 5 = = 4 5 ` v.).zXkXaXzXHXHXHXHXHXHXHXHXHXHXHXHXHXHXHXHXHXHXHXHXHXHXHXHXHXHXHXHXHXHXHXHXHXHX",
"HXHXHXHXHXHXHXHXSXaXaXxXdXv.5 $ $ % K P I I % % $ & e K.kXaXaXDXHXHXHXHXHXHXHXHXHXHXHXHXHXHXHXHXHXHXHXHXHXHXHXHXHXHXHXHXHXHXHXHX",
"HXHXHXHXHXHXHXZXW.aXkXF.5 $ V P E 3.4.<.<.4.3.} I P % & ` +XaXW.AXHXHXHXHXHXHXHXHXHXHXHXHXHXHXHXHXHXHXHXHXHXHXHXHXHXHXHXHXHXHXHX",
"HXHXHXHXHXHXZXY.Q.dX:.$ V E } ^ q.[.[.0.e.[.[.`.| } } P % 6 F.+XJ.cXHXHXHXHXHXHXHXHXHXHXHXHXHXHXHXHXHXHXHXHXHXHXHXHXHXHXHXHXHXHX",
"HXHXHXHXHXAXJ.T.).' % U } ..X.q.OXOX$X X X%XoX[.r.<.3. .E V 5 B.T.b.m.HXHXHXHXHXHXHXHXHXHXHXHXHXHXHXHXHXHXHXHXHXHXHXHXHXHXHXHXHX",
"HXHXHXHXGXY.J.E.` % U  .3.4.y.%X*X>X3X&X:X>X3X*Xi.e...| } E V 5 m.Y.r o 8 m.HXHXHXHXHXHXHXHXHXHXHXHXHXHXHXHXHXHXHXHXHXHXHXHXHXHX",
"HXHXHXHXaXB.Y.l.V U | <.0.].=X4XtXtXtX-X-XrX5X5XOXoX*Xr.<.} R V _ D.D.f.9 O + f.HXHXHXHXHXHXHXHXHXHXHXHXHXHXHXHXHXHXHXHXHXHXHXHX",
"HXHXHXxXb.F.D.Y K ^ ,.y.*X=X:XrXtXuXtX-Xa.OX5X5XrX>X3X4X[.3.} I * l.D.b.ZXcXf.> F.HX~.m b b m ^.HXHXHXHXHXHXHXHXHXHXHXHXHXHXHXHX",
"HXHXHXT.v.H.' V E X.'.1X3X=X6XtXmXMXmXa.5.5XNXmXuX<X>X4X>X[.0.} K ( D.b.T.HXHXHX~.l g f a a a g v /.HXHXHXHXHXHXHXHXHXHXHXHXHXHX",
"HXHXZXz.v.G.U T | y.*X3X1X>X6XuXtXyXoX5.a.8XrXqXtX8X<X4X4X*X'.X.R K :.b.z.ZXHX!.h f f f f f f a a k ~.cX(.E.I.P.K.P.E.HXHXHXHXHX",
"HXHX|.h.B.:.V Q 8.*X*X4X>X6XqX9X7Xa.5.a.7X7X7X7X8X9X6X>X>X>X*Xw.} K _ b.h.+X~.s f f f f f f f f a a j /.SXDXcXE.P.m.d.y M m.HXHX",
"HXHXD.k.G._ P | y.*X=X:X>X6XqXqX7X7.a.7X7X7XwXwXeXeX6X<X:X:X&X].<.R T B.z.D.l a f f f f f f f f a a a n HXHXHXHXHXHXHXE.s.1 w K.",
"HXSXz.h.G.U R 3.#X$X:X<X6X8XeXiXa.7.wXwXwXwXwXeXeXyX9X8X<X:X&X$Xe.Q K N.n.x s f f f f f f f f f a a a s HXHXHXHXHXHXHXHXHXf.1 8 ",
"HXkXd.z.C.I ^ y.$X&X:X<X8XqXeX4X7.XXeXeXeXeXiXiXpXeXeX0X6X<X=X&Xp.| K o.x.x p f f f f f f f f f a a f h ^.HXHXHXHXHXHXHXHXHX8 1 ",
"HXsXs.c.N.J | ].%X:X7X0XeXeXeXoXXXiXiXiXiXiXiXiXiXeXeXeXwX7X>X&X X<.P o.n.x i f f f f f f f f f f f f g ~.HXHXHXHXHXHXHXHXHXt 1 ",
"HXQ.u b.N.K <.#X%X>X8XeXeXeXiX7.XXiXpXpXiXpXpXiXiXiXeXeXqX0X].0.9./ C _ n.x i f f f f f f f f f f f f g ^.HXHXHXHXHXHXHXHXHXq 1 ",
"HXQ.x c.N.K 8.#X&X,X0XwXeXeX;X7.8XpXpXpXpXpXpXpXyXyXiXeX7Xi.*.%.~ ~ C  .n.` i f f a f f f f f f f f f j HXHXHXHXHXHXHXHXHXHX8 1 ",
"HX+Xx c.C.K 8.$X-X;X0XeXeXeXXX6.pXpXpXpXpXpXpXpXpXyXiX%Xw.9.#.#.#.~ C o.D.s.d f f f f f f f a f f f f b HXHXHXHXHXHXHXHXHXk.1 1 ",
"HXsX:.x.S.I 3.%X-X;X4XeXiXpX1.1.MXNXNXNXNXNXNXMXMXuXu.%.$.$.#.#.#.~ C 2.n.y c g a f f f f f a g f f j /.DXHXHXHXHXHXHXHXE.2 1 y ",
"HXxXd.z.Y.R ,.#X;X;X0XyXyXpX;.S.NXNXNXNXNXNXNXNXMXy.%.$.$.$.$.#.#.! V C.n.7 B.m g a f f f f f a f h ~.(.- HXHXHXHXHXHXHXt 1 2 I.",
"HXSXj.h.W. .^ ].=X>X9XyXuXuX) S.NXNXBXBXBXNXBXNX'.+.+.+.$.$.$.#.~ ! R T.z.4 H (.!.k f f f f a a l ^.HXHX- x HXHXHXHXHXf.1 1 c.HX",
"HXGXb.h.F.C.R p.$X>X8XeXuXuX) XXNXBXVXVXVXVXBX@X=.+.+.+.$.$.#.#.~ L  .W.g.# N H A.(.!.b z z b ~.HXHXHXHXn.X HXHXHXHXk.1 1 f.HXHX",
"HXHXQ.g.v.|.E 8.$X=X6XeXiXpX) +XNXBXVXCXCXVXNXw.+.+.+.$.#.%.-.9.9.I A.J.` # Z Z A ] V.|..X.X{.V.[ HXHXHXHX- M HXHXz.1 1 x HXHXHX",
"HXHXAXh.v.R.C.^  X=X<XqXyXiX) XXVXVXCXCXCXCX}.=.@.+.+.%.w.p.:X$XX. .aXc.e { S Z Z Z Z Z A S Z Z Z Z.HXHXHXx., HXf.1 1 M HXHXHXHX",
"HXHXGXJ.h.D.sX} 8.$X:X8XyXyXW XXNXVXCXCXFXCXq.@.+.+.-.'.9X>X=Xy.E |.P.h.G.GX{.G Z Z Z Z Z Z Z Z Z ] HXHXHXHXE.M 1 1 f.HXHXHXHXHX",
"HXHXHXZXh.b.Y.|.^ y.=X%X9XyX;.S.NXVXVXFXCXCX=.@.@.-.oXeX<X=X X^ `.sXv.h.ZXHXHX.XH Z Z Z Z Z Z Z Z D gXHXHXE.q 1 1 x.HXHXHXHXHXHX",
"HXHXHXHXQ.h.G.Q.}.} e.=X>X9X>.6.MXNXVXVXCX@X*.+.&.oXeX6X:X$XX.4.zXD.v.aXHXHXHXHX{.D Z Z Z Z Z Z Z A A.HXM.8 1 8 F.HXHXHXHXHXHXHX",
"HXHXHXHXGXb.z.J.sX}.X.y.=X<X1.1.pXpXMXNXNX[.&.+.w.eX6X=X#XX._.xXJ.G.|.cXHXHXHXHXHXO.Z Z Z Z Z Z A [ W.s.1 2 w E.HXHXHXHXHXHXHXHX",
"HXHXHXHXHXAXz.v.P.aXgX8.e.#Xe.;.9XyXyXpXuXp.%.*.].>X=Xy.<.}.xXT.D.G.AXSXSXsXH.ZXHXgXF Z Z Z Z F Z.F.q 1 1 k.HXw M HXHXHXHXHXHXHX",
"HXHXHXHXHXHXx.j.b.T..XlX[.0.0.W t.<X<X0X8Xy.+.-.%Xp.w.r.vXkXT.B.s.T.nXAXkX.XfXJ.xXHX[ Z Z S O.Q.M 1 < w P.HXHXt 1 HXHXHXHXHXHXHX",
"HXHXHXHXHXm.HXZXv.k.T.Q.fXbX2X4.0.y.p.i.p.8.&.8.y.[.vXxXsXT.z.z.H.L.Q.sXkXSXSXzXJ.kXV.Z ] U.n.8 1 2 x.HXHXHXHXn.O HXHXHXHXHXHXHX",
"HXHXHXHXc.HXHXHXSXY.g.D.Q..XfXxXnXvX2X2X2X2XvXjXxXzXsXQ.D.g.L.GXHXJ.b.g.T.bXSXSXcXT.B.U.F.w 1 1 u I.HXHXHXHXHXE.  HXHXHXHXHXHXHX",
"HXHXHXz.sXHXHXHXHXHXkXv.h.D.T.|.sXsXkXfXkXfXgXsX.XT.B.h.b.xXGXHXHXAXq , q J.lXAXGXAXT.r 1 1 q m.U.] U.HXHXHXHXHX  HXHXHXHXHXHXHX",
"HXHXc.M.HXHXHXHXHXHXHXGXzXD.g.h.` b.D.H.D.H.B.g.j.w 9 j.).HXHXHXHXb.+ 1 2 e D.kXnXGXSXQ.w c.U.[ A F HXHXHXHXHXHX  ).HXHXHXHXHXHX",
"HXI.t HXHXHXHXHXHXHXHXHXHXGXAXkX9 . v.z.v.v.6 4 9 < 1 1 2 h.HXHXHXzX0 , 0 2 0 b.dXnXDXGXsX' B N Z O.HXHXHXHXHXHX  E.HXHXHXHXHXHX",
"HXt m.HXHXHXHXHXHXHXHXHXHXHXHXHXHXo k.GXGXGXW.6 1 1 1 1 1 1 x HXHXHXnX0 < q 2 8 v.sXbXSXGXzX{ N D |.HXHXHXHXHXHX. ).HXHXHXHXHXHX",
"K.1 cXHXHXHXHXHXHXHXHXHXHXHXHXHXHXM + HXHXHXk.1 1 1 < 1 1 1 1 n.HX(.k.8 O 1 r 8 1 h.aXlXAXHXxX' o.HXHXHXHXHXHXHX  HXHXHXHXHXHXHX",
"s.1 HXHXHXHXHXHXHXHXHXHXHXHXHXHXHXHXO f.HXHXw 1 1 1 1 1 1 1 1 q u 0 2 2 w , 1 y 8 1 s.W.hXAXGXAXJ.xXHXHXHXHXHXE.  HXHXHXHXHXHXHX",
"w 1 E.HXHXHXHXHXHXHXHXHXHXHXHXHXHXHXz.o E.HXq 1 1 1 1 1 1 1 1 1 1 q k.I.HXSXt < t 9 , t T.kXAXGXSXT.sXHXHXHXHXm.X HXHXHXHXHXHXHX",
"q 1 M HXHXHXHXHXHXHXHXHXHXHXHXHXHXHXHX3 x HXw 1 1 1 1 1 1 1 1 q M.HXHXHXHXHXSX4 1 :.w , r J.sXbXHXGXQ.sXHXHXHXx , HXHXHXHXHXHXHX",
"u 1 1 k.HXHXHXHXHXHXHXHXHXHXHXHXHXHXHXE.F.m.q 1 1 1 1 1 2 < 2 n.HXHXHXHXHXU.] N @ 1 d.y , q D.sXlXGXGXsX).HXHX: M HXHXHXHXHXHXHX",
"I.8 1 1 q d.M.I.E.DXHXDXsXI.P.F.c.g.y q 2 1 1 1 1 1 1 1 1 < 6 A.|.|.{.V.] S Z Z N @ 1 h.` 1 0 b..XxXSXHXsXQ.xX  R.HXHXHXHXHXHXHX",
"HXK.q 1 1 1 1 1 8 q q q q 3 8 1 < 1 1 2 q t k.M.u 2 1 1 2 x N.[ G F S Z Z Z Z S H O.y 1 k.s.8 8 z.|.kXSXHXfXg.O HXHXHXHXHXHXHXHX",
"HXHXHXm.t q 8 1 2 1 1 1 2 2 9 w t f.n.I.HXHXm.7 R.L.n.n.I.HXHXHX|.A.V.O.O.V.{.{.HXHXHXD.8 k.h.q 8 k.W.gXAXHXcXj.AXHXHXHXHXHXHXHX",
"HXHXHXHXHXHXE.P.K.K.K.K.P.E.cXHXHXHXHXHXHXHXHX1 : ).HXHXHXHXHXHXHXHXHXHXHXHXHXHXHXHXHXHXT.8 z.z.r 8 h.T.gXZXHXZXW.ZXHXHXHXHXHXHX",
"HXHXHXHXHXHXHXHXHXHXHXHXHXHXHXHXHXHXHXHXHXHXHXHX< - P.HXHXHXHXHXHXHXHXHXHXHXHXHXHXHXHXHXHXQ.8 z.v.u 9 s.J.aXxXGXAXW.xXHXHXHXHXHX",
"HXHXHXHXHXHXHXHXHXHXHXHXHXHXHXHXHXHXHXHXHXHXHXHXHX9 O m.HXHXHXHXHXHXHXHXHXHXHXHXHXHXHXHXHXHXsXq c.b.s.q x H.aXzXGXSXQ.kXHXHXHXHX",
"HXHXHXHXHXHXHXHXHXHXHXHXHXHXHXHXHXHXHXHXHXHXHXHXHXHXM o t HXHXHXHXHXHXHXHXHXHXHXHXHXHXHXHXHXHXkXr c.D.g.r u b.).zXSXDXaXsXHXHXHX",
"HXHXHXHXHXHXHXHXHXHXHXHXHXHXHXHXHXHXHXHXHXHXHXHXHXHXHXM.+ ; F.HXHXHXHXHXHXHXHXHXHXHXHXHXHXHXHXHXbXu v.H.z.y t c.Q.kXSXGXsXsXHXHX",
"HXHXHXHXHXHXHXHXHXHXHXHXHXHXHXHXHXHXHXHXHXHXHXHXHXHXHXHXHXt o 2 F.HXHXHXHXHXHXHXHXHXHXHXHXHXHXHXL.; + c.J.b.:.t v.E.dXZXSXsXW.HX",
"HXHXHXHXHXHXHXHXHXHXHXHXHXHXHXHXHXHXHXHXHXHXHXHXHXHXHXHXHXHXP.3 o , x.cXHXHXHXHXHXHXHXHXHXHXP.9 X 9 GXz.v.T.b.g.t z.T.dXZXSXsXW.",
"HXHXHXHXHXHXHXHXHXHXHXHXHXHXHXHXHXHXHXHXHXHXHXHXHXHXHXHXHXHXHXHXI.t O o > t n.K.P.I.K.c.w ; X 1 F.HXHXGXb.b.W.D.k.` h.J.sXZXAXW.",
"HXHXHXHXHXHXHXHXHXHXHXHXHXHXHXHXHXHXHXHXHXHXHXHXHXHXHXHXHXHXHXHXHXHXHXK.M < O o X   . + 3 j.).HXHXHXHXHXHXD.b.T.F.v.s.h.H.sXQ.xX",
"HXHXHXHXHXHXHXHXHXHXHXHXHXHXHXHXHXHXHXHXHXHXHXHXHXHXHXHXHXHXHXHXHXHXHXHXHXHXHXHXHXHXHXHXHXHXHXHXHXHXHXHXHXHXJ.b.Q.J.b.h.h.v.kXHX",
"HXHXHXHXHXHXHXHXHXHXHXHXHXHXHXHXHXHXHXHXHXHXHXHXHXHXHXHXHXHXHXHXHXHXHXHXHXHXHXHXHXHXHXHXHXHXHXHXHXHXHXHXHXHXHXT.n.aXT.B.w Q.HXHX",
"HXHXHXHXHXHXHXHXHXHXHXHXHXHXHXHXHXHXHXHXHXHXHXHXHXHXHXHXHXHXHXHXHXHXHXHXHXHXHXHXHXHXHXHXHXHXHXHXHXHXHXHXHXHXHXHXQ.D.T.w E.HXHXHX",
"HXHXHXHXHXHXHXHXHXHXHXHXHXHXHXHXHXHXHXHXHXHXHXHXHXHXHXHXHXHXHXHXHXHXHXHXHXHXHXHXHXHXHXHXHXHXHXHXHXHXHXHXHXHXHXHXHXsXr T.HXHXHXHX",
"HXHXHXHXHXHXHXHXHXHXHXHXHXHXHXHXHXHXHXHXHXHXHXHXHXHXHXHXHXHXHXHXHXHXHXHXHXHXHXHXHXHXHXHXHXHXHXHXHXHXHXHXHXHXHXHXHXHXSXHXHXHXHXHX",
"HXHXHXHXHXHXHXHXHXHXHXHXHXHXHXHXHXHXHXHXHXHXHXHXHXHXHXHXHXHXHXHXHXHXHXHXHXHXHXHXHXHXHXHXHXHXHXHXHXHXHXHXHXHXHXHXHXHXHXHXHXHXHXHX",
"HXHXHXHXHXHXHXHXHXHXHXHXHXHXHXHXHXHXHXHXHXHXHXHXHXHXHXHXHXHXHXHXHXHXHXHXHXHXHXHXHXHXHXHXHXHXHXHXHXHXHXHXHXHXHXHXHXHXHXHXHXHXHXHX"
};
