/* XPM */
static const char * mkvmergeGUI_xpm[] = {
"64 64 706 2",
"  	c None",
". 	c #FFFFFF",
"+ 	c #FEFEFE",
"@ 	c #FDFDFD",
"# 	c #FBFBFB",
"$ 	c #F7F7F7",
"% 	c #F3F3F3",
"& 	c #E6E6E6",
"* 	c #C4C4C4",
"= 	c #9D9D9D",
"- 	c #818181",
"; 	c #757575",
"> 	c #7E7E7E",
", 	c #939393",
"' 	c #B0B0B0",
") 	c #CFCFCF",
"! 	c #E4E4E4",
"~ 	c #EBEBEB",
"{ 	c #EFEFEF",
"] 	c #F2F2F2",
"^ 	c #F6F6F6",
"/ 	c #F9F9F9",
"( 	c #FCFCFC",
"_ 	c #FAFAFA",
": 	c #C2C2C2",
"< 	c #808080",
"[ 	c #454545",
"} 	c #2D2D2D",
"| 	c #282828",
"1 	c #2C2C2C",
"2 	c #333333",
"3 	c #3C3C3C",
"4 	c #494949",
"5 	c #646464",
"6 	c #C3C3C3",
"7 	c #E3E3E3",
"8 	c #EAEAEA",
"9 	c #F4F4F4",
"0 	c #ECECEC",
"a 	c #AEAEAE",
"b 	c #545454",
"c 	c #252525",
"d 	c #212121",
"e 	c #353535",
"f 	c #6D6D6D",
"g 	c #7B7B7B",
"h 	c #7D7D7D",
"i 	c #767676",
"j 	c #666666",
"k 	c #555555",
"l 	c #636363",
"m 	c #9A9A9A",
"n 	c #E7E7E7",
"o 	c #F1F1F1",
"p 	c #4A4A4A",
"q 	c #202020",
"r 	c #626262",
"s 	c #B6B6B6",
"t 	c #B9B9B9",
"u 	c #BCBCBC",
"v 	c #BEBEBE",
"w 	c #9F9F9F",
"x 	c #7A7A7A",
"y 	c #5C5C5C",
"z 	c #F0F0F0",
"A 	c #F5F5F5",
"B 	c #C7C7C7",
"C 	c #5B5B5B",
"D 	c #232323",
"E 	c #373737",
"F 	c #ADADAD",
"G 	c #B5B5B5",
"H 	c #B7B7B7",
"I 	c #BABABA",
"J 	c #C1C1C1",
"K 	c #A0A0A0",
"L 	c #737373",
"M 	c #6E6E6E",
"N 	c #AAAAAA",
"O 	c #E0E0E0",
"P 	c #E9E9E9",
"Q 	c #F8F8F8",
"R 	c #848484",
"S 	c #828282",
"T 	c #B3B3B3",
"U 	c #B4B4B4",
"V 	c #B8B8B8",
"W 	c #C6C6C6",
"X 	c #C9C9C9",
"Y 	c #CACACA",
"Z 	c #CCCCCC",
"` 	c #CDCDCD",
" .	c #CECECE",
"..	c #8C8C8C",
"+.	c #6B6B6B",
"@.	c #A4A4A4",
"#.	c #DEDEDE",
"$.	c #E8E8E8",
"%.	c #EEEEEE",
"&.	c #BBBBBB",
"*.	c #474747",
"=.	c #2E2E2E",
"-.	c #C0C0C0",
";.	c #D1D1D1",
">.	c #D4D4D4",
",.	c #D5D5D5",
"'.	c #D3D3D3",
").	c #D2D2D2",
"!.	c #9C9C9C",
"~.	c #727272",
"{.	c #A5A5A5",
"].	c #E5E5E5",
"^.	c #868686",
"/.	c #303030",
"(.	c #575757",
"_.	c #A7A7A7",
":.	c #CBCBCB",
"<.	c #D9D9D9",
"[.	c #DDDDDD",
"}.	c #DFDFDF",
"|.	c #DCDCDC",
"1.	c #DADADA",
"2.	c #D7D7D7",
"3.	c #A9A9A9",
"4.	c #888888",
"5.	c #E2E2E2",
"6.	c #DBDBDB",
"7.	c #D8D8D8",
"8.	c #D6D6D6",
"9.	c #ABABAB",
"0.	c #7F7F7F",
"a.	c #B2B2B2",
"b.	c #4F4F4F",
"c.	c #BDBDBD",
"d.	c #C5C5C5",
"e.	c #DED2D2",
"f.	c #CEA3A3",
"g.	c #C07B7B",
"h.	c #B96767",
"i.	c #BD7070",
"j.	c #CE9595",
"k.	c #E7CDCD",
"l.	c #898989",
"m.	c #363636",
"n.	c #717171",
"o.	c #A8A8A8",
"p.	c #946161",
"q.	c #A43C3C",
"r.	c #990F0E",
"s.	c #9A0B09",
"t.	c #9B0C09",
"u.	c #990B09",
"v.	c #950908",
"w.	c #9B2020",
"x.	c #BF7474",
"y.	c #EDD9D9",
"z.	c #6C6C6C",
"A.	c #3B3B3B",
"B.	c #8F8F8F",
"C.	c #E1E1E1",
"D.	c #EDEDED",
"E.	c #B87676",
"F.	c #991212",
"G.	c #A10D0B",
"H.	c #A9130E",
"I.	c #AE1811",
"J.	c #B01A11",
"K.	c #AE1911",
"L.	c #A8140F",
"M.	c #9F0E0B",
"N.	c #B05050",
"O.	c #E8CDCD",
"P.	c #565656",
"Q.	c #464646",
"R.	c #BFBFBF",
"S.	c #D0D0D0",
"T.	c #C79393",
"U.	c #9F1616",
"V.	c #A6100C",
"W.	c #B21911",
"X.	c #BB2116",
"Y.	c #C12719",
"Z.	c #C3291A",
"`.	c #BB2216",
" +	c #B11B12",
".+	c #A4120D",
"++	c #960A08",
"@+	c #B55C5C",
"#+	c #F6EFEF",
"$+	c #B1B1B1",
"%+	c #E4D9D9",
"&+	c #B04343",
"*+	c #A60E0C",
"=+	c #B51A12",
"-+	c #C12518",
";+	c #CA2E1D",
">+	c #CF3420",
",+	c #D23721",
"'+	c #D03520",
")+	c #CA301E",
"!+	c #C02719",
"~+	c #B31C13",
"{+	c #A3110C",
"]+	c #940A09",
"^+	c #D19B9B",
"/+	c #434343",
"(+	c #D3A4A4",
"_+	c #A31010",
":+	c #B11510",
"<+	c #C02317",
"[+	c #CB2F1D",
"}+	c #D43822",
"|+	c #D93E25",
"1+	c #DB4126",
"2+	c #DA4026",
"3+	c #D53B23",
"4+	c #CC321E",
"5+	c #BF2618",
"6+	c #9C0C0A",
"7+	c #B15151",
"8+	c #FAF6F6",
"9+	c #414141",
"0+	c #707070",
"a+	c #C27777",
"b+	c #A70D0B",
"c+	c #B81B13",
"d+	c #C7291B",
"e+	c #D13521",
"f+	c #DE4529",
"g+	c #E1482A",
"h+	c #E0472A",
"i+	c #DC4227",
"j+	c #D43922",
"k+	c #C72D1C",
"l+	c #B61F14",
"m+	c #A3100C",
"n+	c #9F2424",
"o+	c #EFDEDE",
"p+	c #EAEAEB",
"q+	c #DDDEE6",
"r+	c #D0D3E2",
"s+	c #C5C8DD",
"t+	c #BEC2DB",
"u+	c #BDC1DA",
"v+	c #AE555D",
"w+	c #AB0F0D",
"x+	c #BC1E15",
"y+	c #CA2C1C",
"z+	c #DB4127",
"A+	c #E34B2B",
"B+	c #E24A2B",
"C+	c #DE4528",
"D+	c #D73C24",
"E+	c #CC311E",
"F+	c #A7130E",
"G+	c #9C1918",
"H+	c #EAD1D1",
"I+	c #424242",
"J+	c #E1E2E8",
"K+	c #C1C6DF",
"L+	c #A6ADD9",
"M+	c #919BD5",
"N+	c #8792D4",
"O+	c #848FD4",
"P+	c #828ED3",
"Q+	c #828DD3",
"R+	c #944362",
"S+	c #AB0F0C",
"T+	c #BC1E14",
"U+	c #D33722",
"V+	c #DB4026",
"W+	c #E1492B",
"X+	c #DE4428",
"Y+	c #CC301E",
"Z+	c #A8120E",
"`+	c #9F1D1D",
" @	c #ECD6D6",
".@	c #444444",
"+@	c #858585",
"@@	c #E7E8EA",
"#@	c #BEC2DE",
"$@	c #98A1D5",
"%@	c #828DD2",
"&@	c #818CD3",
"*@	c #8F557E",
"=@	c #AA0D0C",
"-@	c #B91A13",
";@	c #C6281A",
">@	c #D0331F",
",@	c #DA3F26",
"'@	c #C82C1C",
")@	c #B81E14",
"!@	c #A5100C",
"~@	c #A93535",
"{@	c #EFE2E2",
"]@	c #D5D7E4",
"^@	c #A4ABD6",
"/@	c #7E89CE",
"(@	c #7E89D0",
"_@	c #8570A9",
":@	c #A3181F",
"<@	c #B3140F",
"[@	c #C02116",
"}@	c #D13420",
"|@	c #D53A23",
"1@	c #D83D24",
"2@	c #D33822",
"3@	c #B11711",
"4@	c #A00C0A",
"5@	c #9B4C4C",
"6@	c #484848",
"7@	c #878787",
"8@	c #CBCEE0",
"9@	c #959DD1",
"0@	c #7A86CC",
"a@	c #7B86CD",
"b@	c #7B85CB",
"c@	c #924160",
"d@	c #AC0D0C",
"e@	c #B71811",
"f@	c #C12217",
"g@	c #C92A1B",
"h@	c #CD301E",
"i@	c #CF321F",
"j@	c #CA2D1D",
"k@	c #C32518",
"l@	c #B71B13",
"m@	c #A8100C",
"n@	c #A62828",
"o@	c #CFAEAE",
"p@	c #797979",
"q@	c #8A8A8A",
"r@	c #838383",
"s@	c #CCCFDF",
"t@	c #8F98CD",
"u@	c #7782C8",
"v@	c #7783C9",
"w@	c #7D70AB",
"x@	c #982E43",
"y@	c #AD0E0C",
"z@	c #B61611",
"A@	c #BD1E15",
"B@	c #C22418",
"C@	c #C52619",
"D@	c #BE2016",
"E@	c #B61912",
"F@	c #AA100D",
"G@	c #A01111",
"H@	c #C18282",
"I@	c #505050",
"J@	c #515151",
"K@	c #D8DAE2",
"L@	c #949CCB",
"M@	c #727EC4",
"N@	c #737FC5",
"O@	c #7C679F",
"P@	c #94324A",
"Q@	c #A90D0D",
"R@	c #B0110E",
"S@	c #B41510",
"T@	c #B61711",
"U@	c #B41610",
"V@	c #AF120E",
"W@	c #A01F1F",
"X@	c #B07070",
"Y@	c #787878",
"Z@	c #585858",
"`@	c #777777",
" #	c #A4AACE",
".#	c #6E7AC0",
"+#	c #6F7AC1",
"@#	c #7272B4",
"##	c #844C76",
"$#	c #952C41",
"%#	c #A01820",
"&#	c #A31317",
"*#	c #A1141A",
"=#	c #981E2B",
"-#	c #853552",
";#	c #83647C",
">#	c #393939",
",#	c #656565",
"'#	c #6F6F6F",
")#	c #B5B8C9",
"!#	c #747EBD",
"~#	c #6A75BC",
"{#	c #6E79BB",
"]#	c #7E87BB",
"^#	c #9298C0",
"/#	c #A2A7C5",
"(#	c #A9AECA",
"_#	c #A6ABCB",
":#	c #989FC9",
"<#	c #818BC3",
"[#	c #6D78BD",
"}#	c #6C71B5",
"|#	c #7167A4",
"1#	c #74619B",
"2#	c #72649E",
"3#	c #6E6BAB",
"4#	c #6670B3",
"5#	c #5F689E",
"6#	c #9092A0",
"7#	c #A7A7A8",
"8#	c #787FA7",
"9#	c #6570B7",
"0#	c #6571B7",
"a#	c #6672B6",
"b#	c #7E85B1",
"c#	c #9FA2B6",
"d#	c #BDBEC2",
"e#	c #DADBE1",
"f#	c #B7BBD5",
"g#	c #8A92C5",
"h#	c #646FB4",
"i#	c #5B65A4",
"j#	c #707595",
"k#	c #A2A2A2",
"l#	c #343434",
"m#	c #535353",
"n#	c #5F5F5F",
"o#	c #B8BAC4",
"p#	c #6E78B4",
"q#	c #606CB2",
"r#	c #6670AD",
"s#	c #8489A7",
"t#	c #ADADAF",
"u#	c #DBDCE4",
"v#	c #A1A7CC",
"w#	c #626DB3",
"x#	c #606BB1",
"y#	c #5A65A7",
"z#	c #565E8F",
"A#	c #91939A",
"B#	c #404040",
"C#	c #696969",
"D#	c #A1A5BD",
"E#	c #5C67AC",
"F#	c #5B67AD",
"G#	c #5F69A8",
"H#	c #7F839C",
"I#	c #A4AACC",
"J#	c #5C67AD",
"K#	c #5863A7",
"L#	c #4D5790",
"M#	c #777A8C",
"N#	c #8D8D8D",
"O#	c #4B4B4B",
"P#	c #ACACAC",
"Q#	c #979797",
"R#	c #9B9B9B",
"S#	c #858BB0",
"T#	c #5661A7",
"U#	c #5662A8",
"V#	c #5662A7",
"W#	c #6F7594",
"X#	c #E6E6E8",
"Y#	c #9198C2",
"Z#	c #545FA3",
"`#	c #4A5490",
" $	c #626783",
".$	c #8B8B8B",
"+$	c #C0C0C2",
"@$	c #6F77A7",
"#$	c #515CA2",
"$$	c #5C6494",
"%$	c #838489",
"&$	c #C9CBDA",
"*$	c #656FAB",
"=$	c #4F5B9F",
"-$	c #47518E",
";$	c #51577B",
">$	c #949496",
",$	c #949494",
"'$	c #B8B9BC",
")$	c #626A9F",
"!$	c #4B579D",
"~$	c #4C579C",
"{$	c #656984",
"]$	c #8E8E8E",
"^$	c #8F96BD",
"/$	c #4C579D",
"($	c #4A569B",
"_$	c #434D8B",
":$	c #474D75",
"<$	c #8A8B8D",
"[$	c #B3B3B7",
"}$	c #596298",
"|$	c #465197",
"1$	c #4A5491",
"2$	c #6E6F78",
"3$	c #929292",
"4$	c #B4B8CD",
"5$	c #4B569A",
"6$	c #465298",
"7$	c #455095",
"8$	c #3E4885",
"9$	c #414770",
"0$	c #848588",
"a$	c #A6A6A6",
"b$	c #AFAFAF",
"c$	c #595959",
"d$	c #B0B0B4",
"e$	c #575F93",
"f$	c #414C91",
"g$	c #4A5285",
"h$	c #717274",
"i$	c #CCCDD7",
"j$	c #535D9B",
"k$	c #414C92",
"l$	c #3F4A8F",
"m$	c #38427E",
"n$	c #3D436A",
"o$	c #7E7E81",
"p$	c #6A6A6A",
"q$	c #B0B0B2",
"r$	c #5A6290",
"s$	c #3B468B",
"t$	c #48507D",
"u$	c #909090",
"v$	c #A3A3A3",
"w$	c #D2D2D8",
"x$	c #57609A",
"y$	c #3C478D",
"z$	c #3B478D",
"A$	c #394488",
"B$	c #394177",
"C$	c #4F536C",
"D$	c #767677",
"E$	c #676D91",
"F$	c #354085",
"G$	c #444B78",
"H$	c #6C6D6D",
"I$	c #9E9E9E",
"J$	c #CECFD4",
"K$	c #525C95",
"L$	c #364288",
"M$	c #3E4987",
"N$	c #535A81",
"O$	c #6A6C7B",
"P$	c #717173",
"Q$	c #7C7C7C",
"R$	c #7B7E95",
"S$	c #303B7C",
"T$	c #3C4475",
"U$	c #656567",
"V$	c #C1C2CA",
"W$	c #46508C",
"X$	c #333E83",
"Y$	c #404983",
"Z$	c #585E82",
"`$	c #707280",
" %	c #6B6D7A",
".%	c #4E516A",
"+%	c #484A53",
"@%	c #A1A1A1",
"#%	c #959595",
"$%	c #686868",
"%%	c #93949D",
"&%	c #394279",
"*%	c #384177",
"=%	c #73747A",
"-%	c #969696",
";%	c #A3A5B4",
">%	c #4F5783",
",%	c #60657F",
"'%	c #73747F",
")%	c #63677E",
"!%	c #4B5179",
"~%	c #2F386A",
"{%	c #272E57",
"]%	c #484950",
"^%	c #4E4E4E",
"/%	c #585E81",
"(%	c #545977",
"_%	c #747474",
":%	c #898A8C",
"<%	c #696C7D",
"[%	c #555A7C",
"}%	c #3F477A",
"|%	c #2A3577",
"1%	c #232E6D",
"2%	c #1D265B",
"3%	c #3D415B",
"4%	c #5A5B5B",
"5%	c #818288",
"6%	c #666668",
"7%	c #616161",
"8%	c #999999",
"9%	c #919191",
"0%	c #83858D",
"a%	c #4A517A",
"b%	c #2C3675",
"c%	c #222E74",
"d%	c #222D73",
"e%	c #202B6D",
"f%	c #1C265F",
"g%	c #1F2650",
"h%	c #5A5C66",
"i%	c #2B2B2B",
"j%	c #525252",
"k%	c #666B8E",
"l%	c #1E296F",
"m%	c #1C286B",
"n%	c #192360",
"o%	c #151E50",
"p%	c #3E4159",
"q%	c #C8C8C8",
"r%	c #3A3A3A",
"s%	c #2F2F2F",
"t%	c #4D4D4D",
"u%	c #71758F",
"v%	c #242E6E",
"w%	c #1A256B",
"x%	c #19246A",
"y%	c #192366",
"z%	c #16205D",
"A%	c #131B4F",
"B%	c #2B304F",
"C%	c #66676C",
"D%	c #323232",
"E%	c #3E3E3E",
"F%	c #646984",
"G%	c #26306C",
"H%	c #162166",
"I%	c #152065",
"J%	c #151F61",
"K%	c #131C59",
"L%	c #10184C",
"M%	c #23284B",
"N%	c #595A64",
"O%	c #222222",
"P%	c #888889",
"Q%	c #454B73",
"R%	c #172264",
"S%	c #111C62",
"T%	c #111C60",
"U%	c #101A5B",
"V%	c #0F1852",
"W%	c #0D1548",
"X%	c #23294A",
"Y%	c #555762",
"Z%	c #141414",
"`%	c #191919",
" &	c #2C2D36",
".&	c #414458",
"+&	c #505362",
"@&	c #575A67",
"#&	c #56596A",
"$&	c #4A4E69",
"%&	c #353C66",
"&&	c #1B2461",
"*&	c #0E185D",
"=&	c #0D185B",
"-&	c #0D1758",
";&	c #0C1552",
">&	c #0B134A",
",&	c #0A1241",
"'&	c #2D314D",
")&	c #5D5E66",
"!&	c #4C4C4C",
"~&	c #1E1E1E",
"{&	c #0A0A0A",
"]&	c #090909",
"^&	c #111111",
"/&	c #23242D",
"(&	c #151B40",
"_&	c #0A144E",
":&	c #0D1751",
"<&	c #0F1854",
"[&	c #0D1755",
"}&	c #0A1555",
"|&	c #0A1454",
"1&	c #091453",
"2&	c #091350",
"3&	c #09124C",
"4&	c #081146",
"5&	c #081040",
"6&	c #1F2547",
"7&	c #434657",
"8&	c #707071",
"9&	c #575A6B",
"0&	c #323757",
"a&	c #181F4A",
"b&	c #0B1344",
"c&	c #081044",
"d&	c #060E43",
"e&	c #060E42",
"f&	c #071041",
"g&	c #0A1240",
"h&	c #141B42",
"i&	c #2A2F4B",
"j&	c #464959",
"k&	c #69696C",
"l&	c #989898",
"m&	c #5D5D5D",
"n&	c #77777C",
"o&	c #63646E",
"p&	c #545664",
"q&	c #4C4F5F",
"r&	c #4B4E5E",
"s&	c #505260",
"t&	c #5A5B65",
"u&	c #69696D",
"v&	c #3D3D3D",
"w&	c #3F3F3F",
". . . . . . . . . . . . . . . . + @ # $ % & * = - ; > , ' ) ! ~ { ] ^ / ( @ + . . . . . . . . . . . . . . . . . . . . . . . . . ",
". . . . . . . . . . . . . . . + @ _ ^ { : < [ } | 1 2 3 4 5 , 6 7 8 { 9 $ _ @ + . . . . . . . . . . . . . . . . . . . . . . . . ",
". . . . . . . . . . . . . . . @ _ ^ 0 a b c d e b f g h i j k l m ) n 0 o ^ / ( + . . . . . . . . . . . . . . . . . . . . . . . ",
". . . . . . . . . . . . . . + # ^ { ' p q } r , a s t u v t w x y h t ! 8 z A / ( + . . . . . . . . . . . . . . . . . . . . . . ",
". . . . . . . . . . . . . + ( $ o B C D E h F s G H I v J * B 6 K L M N O P { 9 Q ( + . . . . . . . . . . . . . . . . . . . . . ",
". . . . . . . . . . . . . @ / % ! R 1 e S T U G V u J W X Y Z `  .t ..+.@.#.$.%.9 Q ( + . . . . . . . . . . . . . . . . . . . . ",
". . . . . . . . . . . . + ( ^ %.&.*.=.; T G s I -.B ` ;.>.,.>.'.).;.Y !.~.{.#.$.%.9 / ( + . . . . . . . . . . . . . . . . . . . ",
". . . . . . . . . . . . + / % ].^./.(._.H H &.: :.).<.[.}.}.#.|.1.2.,.)._.x 3.O P { A / ( + . . . . . . . . . . . . . . . . . . ",
". . . . . . . . . . . . ( $ { ` k e 4.V V u * ` 2.O & P 8 8 P & 5.#.6.7.8.9.0.a.! 8 z ^ _ @ + . . . . . . . . . . . . . . . . . ",
". . . . . . . . . . . + # 9 8 9.3 b.3.I c.d.) 1.! 0 o 9 A 9 % z 0 n 5.#.1.7.9.^.-.e.f.g.h.i.j.k.@ . . . . . . . . . . . . . . . ",
". . . . . . . . . . . + / o 7 l.m.n.H c.6 ` <.].{ ^ _ ( ( # _ Q 9 z ~ ].O |.7.o.p.q.r.s.t.u.v.w.x.y.. . . . . . . . . . . . . . ",
". . . . . . . . . . . @ $ %.7.z.A.B.c.J Y ,.C.D.^ # + . . . + ( _ $ ] D.$.5.#.E.F.G.H.I.J.K.L.M.v.N.O.. . . . . . . . . . . . . ",
". . . . . . . . . . . ( A ~ :.P.Q.@.R.W S.|.$.% _ + . . . . . + @ # Q 9 %.$.T.U.V.W.X.Y.Z.Y.`. +.+++@+#+. . . . . . . . . . . . ",
". . . . . . . . . . . # % $.c.4 k $+: Y ,.C.D.^ ( . . . . . . . + @ _ $ ] %+&+*+=+-+;+>+,+'+)+!+~+{+]+^+. . . . . . . . . . . . ",
". . . . . . . . . . + _ o & $+/+l V d. .<.].z / + . . . . + + @ ( _ Q A ] (+_+:+<+[+}+|+1+2+3+4+5+K.6+7+8+. . . . . . . . . . . ",
". . . . . . . . . . + / { ! _.9+0+c.B ).[.$.% # . . . + @ # _ $ A ] z D.8 a+b+c+d+e+|+f+g+h+i+j+k+l+m+n+o+. . . . . . . . . . . ",
". . . . . . . . . . + Q %.7 w 9+x -.Y >.}.8 A ( + + @ # / A ] p+q+r+s+t+u+v+w+x+y+}+z+g+A+B+C+D+E+`.F+G+H+. . . . . . . . . . . ",
". . . . . . . . . . @ $ D.5.!.I+- J Z 8.C.0 ^ ( + ( / ^ o J+K+L+M+N+O+P+Q+R+S+T+y+U+V+h+B+W+X+D+Y+`.Z+`+ @. . . . . . . . . . . ",
". . . . . . . . . . @ $ D.C.!..@+@6 ` 7.7 D.^ # # Q % @@#@$@%@&@&@&@&@&@&@*@=@-@;@>@D+i+C+X+,@U+'@)@!@~@{@# . . . . . . . . . . ",
". . . . . . . . . . @ ^ 0 C.K *.4.* ) <.7 %.^ / $ o ]@^@/@(@(@(@(@(@(@(@(@_@:@<@[@y+}@|@1@D+2@Y+-+3@4@5@_._.$+V -.).].^ . . . . ",
". . . . . . . . . . @ ^ 0 5.@.6@7@d.S.1.! D.9 A z 8@9@0@a@a@a@a@a@a@a@a@a@b@c@d@e@f@g@h@>@i@j@k@l@m@n@o@|.>.Y V w 4.p@q@U ].. . ",
". . . . . . . . . . @ ^ 0 5.9.p r@W ;.1.7 ~ z { s@t@u@v@v@v@v@v@v@v@v@v@v@v@w@x@y@z@A@B@C@k@D@E@F@G@H@0 A # + . / O a.L I@; B . ",
". . . . . . . . . . @ $ D.7 G J@> d.;.1.5.P ~ K@L@M@N@N@N@N@N@N@N@N@N@N@N@N@N@O@P@Q@R@S@T@U@V@b+W@X@>.7 z Q @ . . . . <.Y@m.j <.",
". . . . . . . . . . @ $ %.! -.Z@`@* ;.<.O ].!  #.#+#+#+#+#+#+#+#+#+#+#+#+#+#+#+#@###$#%#&#*#=#-#;#T B <.P 9 # + . . . . I e >#$+",
". . . . . . . . . . + Q { ].Z ,#'#6 ;.7.[.7.)#!#~#~#~#~#~#{#]#^#/#(#_#:#<#[#~#~#~#~#}#|#1#2#3#4#5#6#t  .O %.Q @ . . . . B >#E U ",
". . . . . . . . . . + Q z & '.L ,#u  .B a.7#8#9#0#0#0#a#b#c#d# .2.|.O 7 e#f#g#0#0#0#0#0#0#0#0#h#i#j#N : 2.$.9 # . . . . k#l#m#,.",
". . . . . . . . . . + / o $.1.+@n#w o.o.s o#p#q#q#q#r#s#t#:  .>.<.[.C.! n P u#v#w#q#q#q#q#q#q#x#y#z#A#s ` O { / + . . 6.,#B#w ( ",
". . . . . . . . . . . _ ] P ;., C#= v ) S.D#E#F#F#G#H#o.c.B ` ).8.1.[.C.! $.8 8 I#J#F#F#F#F#F#F#K#L#M#9.* <.8 ^ @ . 0 N#O#7@& . ",
". . . . . . . . . . . # C.I P#Q#n#R#Z ` Y S#T#U#V#W#m T -.d.Y  .).8.1.[.C.! $.~ X#Y#U#U#U#U#U#V#Z#`# $K &.;.].% # $.= Z@.$}.. . ",
". . . . . . . . . . { 6 T J 6.d.,#7@B X +$@$#$#$$$%$@.s c.: W Y  .).8.1.[.C.! $.8 &$*$#$#$#$#$#$=$-$;$>$T :.O { 6.,$l = & . . . ",
". . . . . . . . / ` T : P %.].'.`@n.v d.'$)$!$~${$]$3.G I v : W Y  .).8.1.[.C.! $.$.^$/$/$/$/$/$($_$:$<$9.d.1.-..$i s $ . . . . ",
". . . . . . . |.a a.C.+ Q z n [., y N : [$}$|$1$2$3$o.$+s I v : W Y  .).8.1.[.C.! n 4$5$6$6$6$6$7$8$9$0$a$$+!.Y@Q#'.. . . . . . ",
". . . . . / -.= d._ . + _ ] 8 C.b$c$N#v d$e$f$g$h$3$a$F a.s I v : W Y  .).8.1.[.C.! i$j$k$k$k$k$l$m$n$o$.$- R a.~ @ . . . . . . ",
". . . . 7 a = 2.. . . . # 9 0 7 X p$'#s q$r$s$t$n.u$v$3.a a.s I v : W Y  .).8.1.[.C.w$x$y$y$y$z$A$B$C$D$> Q#-.].9 @ . . . . . . ",
". . . #.!.= #.. . . . . ( ^ %.].7.l.c$k#T E$F$G$H$.$I${.N a a.s I v : W Y  .).8.1.[.J$K$L$L$L$M$N$O$P$Q$Q#I ;.! % ( . . . . . . ",
". . }.3$, }.. . . . . . @ Q o $.#.N b r@' R$S$T$U$l.!.v$a$3.a a.s I v : W Y  .).8.<.V$W$X$Y$Z$`$ %.%+%~.@%&.).! % ( . . . . . . ",
". % #%$%` . . . . . . . + _ % 8 C.W $%5 _.%%&%*%=%B., -%= v$o.a a.s I v : W Y  .;.).;%>%,%'%)%!%~%{%]%0+@.c.'.].] # . . . . . . ",
". v I@R / . . . . . . . . ( ^ D.! 8..$^%]$_./%(%x _%L i 0.]$R#a$a a.s I v : d.d.&.a$:%<%[%}%|%1%2%3%4%M o.-.,.& ] # . . . . . . ",
"$ l.E r@_ . . . . . . . . @ Q z n |.' b f {.5%6%r 7%7%7%l M R 8%3.a a.G G b$K 9%B.0%a%b%c%d%e%f%g%h%j f P#* 2.n % # . . . . . . ",
"z Y@i%C |.. . . . . . . . + _ % 8 O ` `@b.9%g j%j%j%j%j%j%k C#^.@%{.I$#%]$u$8%a$a k%l%l%l%m%n%o%p%Y@n.'#' q%1.$.% _ + . . . . . ",
"# {.r%s%r@1.. . . . . . . . ( ^ %.! 7.@%t%~.+.I+I+I+I+I+I+I+J@n.4.q@..#%k#b$a.P#u%v%w%x%y%z%A%B%C%R h ~.s ` [.8 % _ + . . . . . ",
". & ]$9+A.$%N 1.] @ . . . . @ / ] $.[.d.f b Z@D%D%D%D%D%D%D%E%j q@Q#w v$@.k#R#F%G%H%I%J%K%L%M%N%0.9%4.i &.).O ~ % / + . . . . . ",
". . { G p@Z@k C#+@K a.J Y :.Y W J t a k#- 0+,#| O%O%O%O%O%D l#n#> ^.q@.$P%`$Q%R%S%T%U%V%W%X%Y%h ]$w 3$Q$-.8.5.~ % / + . . . . . ",
". . . . o 8.t @%]$.$^.r@S +@q@u$3$#%m I$I$x C 9+Z%Z%Z%Z%Z%`% &.&+&@&#&$&%&&&*&=&-&;&>&,&'&)&0.B.w a m S W <.! 0 % / + . . . . . ",
". . . . . . . @ $ ^ z ~ $.~ D.z %.~ & [.>.w !&r (.~&{&]&^&/&(&_&:&<&[&}&|&1&2&3&4&5&6&7&8&r@3$k#' c.w 7@Z |.].0 % / + . . . . . ",
". . . . . . . . . . . . . . . + ( $ { & 1.B `@6@4.,$i +.; o$9&0&a&b&c&d&e&f&g&h&i&j&k&Q$l.l&o.G J X w N#;.#.].0 % / + . . . . . ",
". . . . . . . . . . . . . . . . @ _ % ~ O ,.9.k m&v$U b$3.@%Q#q@n&o&p&q&r&s&t&u&`@< l.,$@%b$c.B ) ;.l&-%,.}.& 0 % / + . . . . . ",
". . . . . . . . . . . . . . . . + ( $ z & |. .q@6@Y@s I H T F @.!.,$B.q@4.7@l...9%8%k#F t d.S.8.1.8.N#@%2.}.& 0 % / + . . . . . ",
". . . . . . . . . . . . . . . . . @ _ 9 0 5.2.v f p 9%J : J R.I G b$3.a$v$v${.o.F U u d.) 7.}.5.5.'.- a 1.}.& D.% / + . . . . . ",
". . . . . . . . . . . . . . . . . + ( $ o $.[.'.o.P.C {.B Y Z Z Y B 6 -.R.v R.: B Z ).1.C.n 8 P & R.; &.<.}.& D.9 _ + . . . . . ",
". . . . . . . . . . . . . . . . . . + _ A D.! 1. .3$p z.G  .).8.2.7.2.8.,.,.8.7.6.}.! P %.o z 0 & I$`@q%<.}.& D.9 # . . . . . . ",
". . . . . . . . . . . . . . . . . . + @ Q ] 8 C.2.W 0.6@x -.>.1.}.7 ! ].& & $.P ~ %.o 9 $ ^ % D.'.i l.;.7.}.n %.A ( . . . . . . ",
". . . . . . . . . . . . . . . . . . . + # $ z n [.>.&.L *.0.6 7.O & 8 %.o ] 9 A $ Q _ # # Q ] ~ _.C {.>.7.O $.{ $ ( . . . . . . ",
". . . . . . . . . . . . . . . . . . . . @ _ 9 D.! 6.).a.p$[ g v 6.5.8 z 9 $ _ # ( @ @ @ # ^ %.) 0+p$-.'.7.C.P o Q @ . . . . . . ",
". . . . . . . . . . . . . . . . . . . . + ( / % ~ 5.<.S.a $%9+z.' 1.5.8 z A Q # ( @ @ # $ z C.]$!&u$` ).<.5.~ % _ + . . . . . . ",
". . . . . . . . . . . . . . . . . . . . . + # $ o P O 2.) a +.v&b -%` }.& 0 z 9 ^ $ ^ 9 { 7 !.6@5 H ` ).6.].D.A # + . . . . . . ",
". . . . . . . . . . . . . . . . . . . . . . @ # ^ z $.#.,.` T i v&3 M _.;.}.].P 0 0 0 P 7.#%Q.4 R#Y ` >.#.$.z Q ( . . . . . . . ",
". . . . . . . . . . . . . . . . . . . . . . . @ _ A { n #.>.` c.4.!&2 B#+.8%I  .8.2.;.' _%r%B#7@: q% .7.5.0 9 _ + . . . . . . . ",
". . . . . . . . . . . . . . . . . . . . . . . + @ / A %.& [.>.` * k#f E%s%D%/+(.5 ,#c$w&D%*.7@u d.Y ).|.n { $ ( + . . . . . . . ",
". . . . . . . . . . . . . . . . . . . . . . . . + ( / 9 %.& #.,.` W t l&'#4 e =.1 =.2 /+p$R#c.: B  .7.5.0 9 / @ . . . . . . . . ",
". . . . . . . . . . . . . . . . . . . . . . . . . + ( / 9 %.n }.8.) q%: t o., - `@x q@w U c.-.d.Z ,.}.P o $ ( + . . . . . . . . ",
". . . . . . . . . . . . . . . . . . . . . . . . . . + ( / A { P C.<.).:.d.J v t V H t &.c.-.W ` ,.#.n { ^ _ @ . . . . . . . . . ",
". . . . . . . . . . . . . . . . . . . . . . . . . . . . . . . . . . . . . . . . . . . . . . . . . . . . . . . . . . . . . . . . ",
". . . . . . . . . . . . . . . . . . . . . . . . . . . . . . . . . . . . . . . . . . . . . . . . . . . . . . . . . . . . . . . . "};
