/* XPM */
static const char *mkvmergeGUI_xpm[] = {
/* columns rows colors chars-per-pixel */
"64 64 218 2",
"   c #242322",
".  c #282826",
"X  c #2D2C2B",
"o  c #302F2D",
"O  c #32312F",
"+  c #343331",
"@  c #383735",
"#  c #3A3937",
"$  c #3D3C3A",
"%  c #41403D",
"&  c #454442",
"*  c #4B4947",
"=  c #4D4C49",
"-  c #504E4B",
";  c #54524F",
":  c #555350",
">  c #595754",
",  c #5C5B57",
"<  c #5B5B5B",
"1  c #5D5B59",
"2  c #5F5D59",
"3  c gray36",
"4  c #5C5C5D",
"5  c #5D5D5D",
"6  c gray37",
"7  c #5C5B70",
"8  c #615F5C",
"9  c #64625E",
"0  c #606060",
"q  c gray38",
"w  c #626261",
"e  c #646361",
"r  c #646463",
"t  c #646464",
"y  c #676664",
"u  c #6B6965",
"i  c #6B6A67",
"p  c #696968",
"a  c #6A6A69",
"s  c #6B6B6A",
"d  c #6C6B6A",
"f  c #6F6D69",
"g  c #6F6E6D",
"h  c #636175",
"j  c #706E6A",
"k  c #70706E",
"l  c #72716F",
"z  c #75736F",
"x  c #777570",
"c  c #777674",
"v  c #797672",
"b  c #7A7873",
"n  c #797876",
"m  c #7C7A75",
"M  c #7E7B76",
"N  c #7B7A78",
"B  c #7C7B79",
"V  c #7D7C7A",
"C  c #0101A3",
"Z  c #0202A3",
"A  c #0000A4",
"S  c #0505A4",
"D  c #0707A4",
"F  c #0B0BA5",
"G  c #0F0EA5",
"H  c #1211A5",
"J  c #1515A7",
"K  c #1918A7",
"L  c #1C1BA8",
"P  c #2322A9",
"I  c #2727AA",
"U  c #2D2CAA",
"Y  c #302FAB",
"T  c #3433AB",
"R  c #3C3BAD",
"E  c #4241AE",
"W  c #4948B0",
"Q  c #504EB1",
"!  c #5C5AA5",
"~  c #5352B1",
"^  c #5856B2",
"/  c #5D5BB3",
"(  c #6664B4",
")  c #6967B6",
"_  c #6A68B5",
"`  c #706EB6",
"'  c #7572B7",
"]  c #7976B8",
"[  c #7B79B8",
"{  c #7D7AB9",
"}  c #7F7DB9",
"|  c #BF0101",
" . c #817E7A",
".. c #807F7C",
"X. c #C00000",
"o. c #C10706",
"O. c #C00A0A",
"+. c #C00D0D",
"@. c #C21413",
"#. c #C11817",
"$. c #C11C1B",
"%. c #C01E1D",
"&. c #C32523",
"*. c #C43634",
"=. c #C5403D",
"-. c #C64744",
";. c #C75956",
":. c #C9615E",
">. c #C96E6A",
",. c #CB706B",
"<. c #CB7672",
"1. c #CB7D78",
"2. c #807EB9",
"3. c #83807B",
"4. c #82817E",
"5. c #85837D",
"6. c #87847F",
"7. c #CC827D",
"8. c #858481",
"9. c #888681",
"0. c #888784",
"q. c #8A8885",
"w. c #8D8A85",
"e. c #8D8B88",
"r. c #918E89",
"t. c #92908B",
"y. c #93918E",
"u. c #95938F",
"i. c #96948E",
"p. c #969490",
"a. c #989691",
"s. c #9B9995",
"d. c #9C9994",
"f. c #9D9A95",
"g. c #9E9C96",
"h. c #9F9D99",
"j. c #8381BA",
"k. c #8A87BA",
"l. c #8E8BBB",
"z. c #908DAD",
"x. c #918FBC",
"c. c #9390BB",
"v. c #9290BD",
"b. c #9491BD",
"n. c #9794BE",
"m. c #9996BD",
"M. c #9F9CB7",
"N. c #9C9ABE",
"B. c #A19E98",
"V. c #A19EBF",
"C. c #A2A09A",
"Z. c #A3A19C",
"A. c #A5A29D",
"S. c #A6A49E",
"D. c #A8A59E",
"F. c #A9A7A1",
"G. c #ABA8A2",
"H. c #ACA9A2",
"J. c #ACA9A4",
"K. c #ADAAA5",
"L. c #AFABA5",
"P. c #AFACA5",
"I. c #A5A2BE",
"U. c #AFABBB",
"Y. c #B1AEA7",
"T. c #B1AEA8",
"R. c #B2AFA9",
"E. c #B2AFAA",
"W. c #B1AEBA",
"Q. c #B3B1AB",
"!. c #B4B1AA",
"~. c #B4B1AE",
"^. c #B5B2AC",
"/. c #B6B3AD",
"(. c #B8B4AD",
"). c #B8B4AE",
"_. c #B9B6AF",
"`. c #BAB7B0",
"'. c #B9B6B6",
"]. c #BAB3BF",
"[. c #BAB7BA",
"{. c #BBB8B1",
"}. c #BCB8B1",
"|. c #BCB9B2",
" X c #BDBAB3",
".X c #BEBAB3",
"XX c #BEBBB4",
"oX c #A7A4C1",
"OX c #A9A6C0",
"+X c #ADAAC1",
"@X c #B1AEC2",
"#X c #B4B1C2",
"$X c #B8B4C3",
"%X c #B9B6C3",
"&X c #BDB7C0",
"*X c #BDB9C4",
"=X c #CD8984",
"-X c #CE938E",
";X c #CD9791",
":X c #CE9A94",
">X c #CFA19B",
",X c #D0A59E",
"<X c #C3A9A3",
"1X c #CFA7A1",
"2X c #CEB0A9",
"3X c #C1BEB7",
"4X c #C7B8B9",
"5X c #CCBBB8",
"6X c #D1AFA9",
"7X c #C1BDC4",
"8X c #C6C3BD",
"9X c #CECBC6",
"0X c #CECCC6",
"qX c #CECBD0",
"wX c #D8D5D0",
"eX c #E3E1DE",
"rX c #F0EFED",
"tX c gray100",
/* pixels */
"tXtXtXtXtXtXtXtXtXtXtXtXtXtXtXtXtXtXtXtXtXtXtXtXtXtXtXtXtXtXtXtXtXtXtXtXtXtXtXtXtXtXtXtXtXtXtXtXtXtXtXtXtXtXtXtXtXtXtXtXtXtXtXtX",
"tXtXtXtXtXtXtXtXtXtXtXtXtXtXtXtXtXtXtXtXtXtXtXtXtXtXtXtXtXtXtXtXtXtXtXtXtXtXtXtXtXtXtXtXtXtXtXtXtXtXtXtXtXtXtXtXtXtXtXtXtXtXtXtX",
"tXtXtXtXtXtXtXtXtXtXtXtXtXtXtXtXtXtXtXtXtXtXtXtXtXtXtXtXtXtXtXtXtXtXtXtXtXtXtXtXtXtXtXtXtXtXtXtXtXtXtXtXtXtXtXtXtXtXtXtXtXtXtXtX",
"tXtXtXtXtXtXtXtXtXtXtXtXtXtXtXtXtXtXtXtXtXtXtXtXtXtXtXtXtXtXtXtXtXtXtXtXtXtXtXtXtXtXtXtXtXtXtXtXtXtXtXtXtXtXtXtXtXtXtXtXtXtXtXtX",
"tXtXtXtXtXtXtXtXtXtXtXtXtXtXtXtXtXtXtXtXtXtXtXtXtXtXtXtXtXtXtXtXtXtXtXtXtXtXtXtXtXtXtXtXtXtXtXtXtXtXtXtXtXtXtXtXtXtXtXtXtXtXtXtX",
"tXtXtXtXtXtXtXtXtXtXtXtXtXtXtXtXtXtXtXtXtXtXtXtXtXtXtXtXtXtXtXtXtXtXtXtXtXtXtXtXtXtXtXtXtXtXtXtXtXtXtXtXtXtXtXtXtXtXtXtXtXtXtXtX",
"tXtXtXtXtXtXtXtXtXtXtXtXtXtXtXtXtXtXtXtXtXtXtXtXtXtXtXtXtXtXtXtXtXtXtXtXtXtXtXtXtXtXtXtXtXtXtXtXtXtXtXtXtXtXtXtXtXtXtXtXtXtXtXtX",
"tXtXtXtXtXtXtXtXtXtXtXtXtXtXtXtXtXtXtXtXtXtXtXtXtXtXtXtXtXtXtXtXtXtXtXtXtXtXtXtXtXtXtXtXtXtXtXtXtXtXtXtXtXtXtXtXtXtXtXtXtXtXtXtX",
"tXtXtXtXtXtXtXtXtXtXtXtXtXtXtXtXtXtXtXtXtXtXtXtXtXtXD.9.j u u u m p.^.tXtXtXtXtXtXtXtXtXtXtXtXtXtXtXtXtXtXtXtXtXtXtXtXtXtXtXtXtX",
"tXtXtXtXtXtXtXtXtXtXtXtXtXtXtXtXtXtXtXtXtXtXtXF.8 + $ : f  . .x 9 * + + y S.tXtXtXtXtXtXtXtXtXtXtXtXtXtXtXtXtXtXtXtXtXtXtXtXtXtX",
"tXtXtXtXtXtXtXtXtXtXtXtXtXtXtXtXtXtXtXtXtXR.; + f L.tXtXtXtXtXtXtXtXwXA.u @ % w.tXtXtXtXtXtXtXtXtXtXtXtXtXtXtXtXtXtXtXtXtXtXtXtX",
"tXtXtXtXtXtXtXtXtXtXtXtXtXtXtXtXtXtXtXtXw.o u |.tXtXtXtXtXtXtXtXtXtXtXtXtXeXw.; P.tX:X>.;.;.<.,XtXtXtXtXtXtXtXtXtXtXtXtXtXtXtXtX",
"tXtXtXtXtXtXtXtXtXtXtXtXtXtXtXtXtXtXtXx + d.tXtXtXtXtXtXtXtXtXtXtXtXtXtXtXtXtXtX:X*.O.| | | | +.-.6XtXtXtXtXtXtXtXtXtXtXtXtXtXtX",
"tXtXtXtXtXtXtXtXtXtXtXtXtXtXtXtXtXtX .+ H.tXtXtXtXtXtXtXtXtXtXtXtXtXtXtXtXtXtX7.@.| X.X.X.X.X.| | &.;XeX3X|._.^.R.^.|.tXtXtXtXtX",
"tXtXtXtXtXtXtXtXtXtXtXtXtXtXtXtXtXg.O D.tXtXtXtXtXtXtXtXtXtXtXtXtXtXtXtXtXtX:X#.| X.X.X.X.X.X.X.X.| %.<XrXrXeX|.Q.C.0.c ..A.tXtX",
"tXtXtXtXtXtXtXtXtXtXtXtXtXtXtXtXrX@ w.tXtXtXtXtXtXtXtXtXtXtXtXtXtXtXtXtXtXtX*.| X.X.X.X.X.X.X.X.X.X.| :.tXtXtXtXtXtXtX|.8.6 k R.",
"tXtXtXtXtXtXtXtXtXtXtXtXtXtXtXtXz - tXtXtXtXtXtXtXtXtXtXtXtXtXtXtXtXtXtXtX,X+.X.X.X.X.X.X.X.X.X.X.X.| %.tXtXtXtXtXtXtXtXtXw.4 t ",
"tXtXtXtXtXtXtXtXtXtXtXtXtXtXtXwXX G.tXtXtXtXtXtXtXtXtXtXtXtXtXtXtXtXtXtXtX7.| X.X.X.X.X.X.X.X.X.X.X.X.O.1XtXtXtXtXtXtXtXtXtXt < ",
"tXtXtXtXtXtXtXtXtXtXtXtXtXtXtX .- tXtXtXtXtXtXtXtXtXtXtXtXtXtXtXtXtXqX%XtX,.| X.X.X.X.X.X.X.X.X.X.X.X.o.:XtXtXtXtXtXtXtXtXtXc < ",
"tXtXtXtXtXtXtXtXtXtXtXtXtXtXtX$ i.tXtXtXtXtXtXtXtXtXtXtXtXtXqXc.^ T P K v.1.X.X.X.X.X.X.X.X.X.X.X.X.X.O.,XtXtXtXtXtXtXtXtXtXk < ",
"tXtXtXtXtXtXtXtXtXtXtXtXtXtX_.X 9XtXtXtXtXtXtXtXtXtXtXtXqX] I S C A A C ( ,Xo.X.X.X.X.X.X.X.X.X.X.X.X.%.tXtXtXtXtXtXtXtXtXtX0 < ",
"tXtXtXtXtXtXtXtXtXtXtXtXtXtXr.* tXtXtXtXtXtXtXtXtXtXtXN.Y C C A A A A C Y 4X*.X.X.X.X.X.X.X.X.X.X.X.X.;.tXtXtXtXtXtXtXtXtXy.< 6 ",
"tXtXtXtXtXtXtXtXtXtXtXtXtXtXu f tXtXtXtXtXtXtXtXtXtX} H C A A A A A A A F x.;X+.| X.X.X.X.X.| o.X.| $.2XrXtXtXtXtXtXtXtX.X0 < n ",
"tXtXtXtXtXtXtXtXtXtXtXtXtXtX* r.tXtXtXtXtXtXtXtXtX[ F A A A A A A A A A C U ].<.+.| X.X.X.X.X.| | #.-X|.& tXtXtXtXtXtXtXn 3 0 `.",
"tXtXtXtXtXtXtXtXtXtXtXtXtXtX@ S.tXtXtXtXtXtXtXtXx.G A A A A A A A A A A A C E &X=X&.o.X.X.| | | *.,XtXtX& 3.tXtXtXtXtXq.< 6 d.tX",
"tXtXtXtXtXtXtXtXtXtXtXtXtXtXO Y.tXtXtXtXtXtXtX%XP C A A A A C C C C C C A A C T V.5X=X;.=.=.:.;XtXtXtXtXB.X tXtXtXtXy.< 6 q.tXtX",
"tXtXtXtXtXtXtXtXtXtXtXtXtXtX+ _.tXtXtXtXtXtXtX/ C A A C C H R ( [ [ ( R H A C C F W k.#X7X7X+X} / tXtXtXtX& 9.tXtXu.4 6 ..tXtXtX",
"tXtXtXtXtXtXtXtXtXtXtXtXtXtXo ^.tXtXtXtXtXtX@XJ A A C H ( %XtXtXtXtXtXtX%X_ J C A A C S G G S A S b.tXtXtXa.: tXw.6 6 ..tXtXtXtX",
"tXtXtXtXtXtXtXtXtXtXtXtXtXtXO H.tXtXtXtXtXtX` C A A U oXtXtXtXtXtXtXtXtXtXtX+XY C A A A A A A A C W tXtXtXtX|...< 6 w.tXtXtXtXtX",
"tXtXtXtXtXtXtXtXtXtXtXeXtXtX& d.tXtXtXtXtXtXT C C U %XtXtXtXtXtXtXtXtXtXtXtXtX*XT A A A A A A A A K qXtXtX|.k 3 6 a.tXtXtXtXtXtX",
"tXtXtXtXtXtXtXtXtXtX9XtXtXtX,  .tXtXtXtXtX%XK C J +XtXtXtXtXtXtXtXtXtXtXtXtXtXtX@XL C A A A A A C F V.tXA.0 6 0 G.tXtXtXtXtXtXtX",
"tXtXtXtXtXtXtXtX3XrXtXtXtXtXb 8 tXtXtXtXtXI.F C ' tXtXtXtXtXtXtXtXtXtXtXtXtXtXtXtX} C A A A C C S / [.8.6 6 x |.tXtXtXtXtXtXtXtX",
"tXtXtXtXtXtXtX^.tXtXtXtXtXtXg.% tXtXtXtXtXm.S L *XtXtXtXtXtXtXtXtXtXtXtXtXtXtXtXtXqXP A A A C U N.H.s < 6 u.tXj 6.tXtXtXtXtXtXtX",
"tXtXtXtXtXtXL.tXtXtXtXtXtXtX9XX XXtXtXtXtXb.S ~ tXtXtXtXtXtXtXtXtXtXtXtXtXtXtXtXtXtX/ A C H ' [.5.3 < k ^.tXtXm 3 tXtXtXtXtXtXtX",
"tXtXtXtXtXS.tXtXtXtXtXtXtXtXtX$ p.tXtXtXtXN.F } tXtXtXtXtXtXtXtXtXtXtXtXtXtXtXtXtXtXk.D W U.g.t < 0 p.tXtXtXtXB.# tXtXtXtXtXtXtX",
"tXtXtXtXs.tXtXtXtXtXtXtXtXtXtXm > tXtXtXtX+XJ m.tXtXtXtXtXtXtXtXtXtXtXtXtXtXtXtXtXtX*XI.H.z 6 3 B `.tXtXtXtXtX|.  tXtXtXtXtXtXtX",
"tXtXtXp.0XtXtXtXtXtXtXtXtXtXtX!.o 9XtXtXtXtXI N.tXtXtXtXtXtXtXtXtXtXtXtXtXtXtXtXtXtX(.N 6 < k G.I.W #XtXtXtXtXtX  tXtXtXtXtXtXtX",
"tXtXh.S.tXtXtXtXtXtXtXtXtXtXtXtX& q.tXtXtXtX~ l.tX|.F.L.0XtXtXtXtXtXtXtXtXtXtXtX(...q < s g.U.~ F U tXtXtXtXtXtX. 8XtXtXtXtXtXtX",
"tX`.n tXtXtXtXtXtXtXtXtXtXtXtXtXt.% tXtXtXtXn.! ..0 < 6 0 e.tXtXtXtXtXtXtXtX^...q < u d.U._ J C A ' tXtXtXtXtXtX. 3XtXtXtXtXtXtX",
"tXn C.tXtXtXtXtXtXtXtXtXtXtXtXtXtX+ a.tXtXtX[.7 < 4 6 < 4 6  .tXtXtXtXtXL.B 0 6 s a.U.` L C C C L *XtXtXtXtXtXtX. 8XtXtXtXtXtXtX",
"R.< eXtXtXtXtXtXtXtXtXtXtXtXtXtXtX9.& tXtXtXu.6 6 < < < 6 < 3 A.tX3Xp.k 0 6 k h.tXI.P C C A A S ' tXtXtXtXtXtXtX  tXtXtXtXtXtXtX",
"8.6 tXtXtXtXtXtXtXtXtXtXtXtXtXtXtXtX# w.tXtXk < < < 6 < 6 < < g ..y 6 0 B L.tXtXtXR C A A A C R tXtXtXtXtXtXtXXX  tXtXtXtXtXtXtX",
"g 6 |.tXtXtXtXtXtXtXtXtXtXtXtXtXtXtXa.+ |.tXs < < 6 < 6 < < < < 4 s r.`.tXtXtXtX_ S A A A C I #XtXtXtXtXtXtXtXS.O tXtXtXtXtXtXtX",
"s < 9.tXtXtXtXtXtXtXtXtXtXtXtXtXtXtXtX8  .tXg 6 < 6 < < < 6 6 s S.tXtXtXtXtXtX` G C A A C I OXtXtXtXtXtXtXtXtX .> tXtXtXtXtXtXtX",
"..3 6 t.tXtXtXtXtXtXtXtXtXtXtXtXtXtXtXXXL.C.s < < 6 < < 6 < 6 B.tXtXtXtXtX+XW D A A A S E #XtXtXtXtXtXtXtXtXtX- 9.tXtXtXtXtXtXtX",
"_.0 < < s 9.S._.XXrXtXrX0X`.^.J.d.q.c s 0 6 < < < 6 < 6 < < 7 M.%X%X+Xl.W J C A C C I [ tXtXtXtXtXtXtXtXtXtXeX. `.tXtXtXtXtXtXtX",
"tXY.g 6 < < < 0 r u s s s 0 q 4 < < 4 0 s B p.S.B 0 < < 6 ..z.^ T P J S S C S J R [ *XtXtXtXtXtXtXtXtXtXtXtXw.% tXtXtXtXtXtXtXtX",
"tXtXtXC.B s 0 6 6 6 < 6 6 0 s j B w.B._.tXtXS.h '.!.B.C._.tXtXtX%XV.k.' ' j.N.#XtXtXtXtXtXtXtXtXtXtXtXtXtXtX% w.tXtXtXtXtXtXtXtX",
"tXtXtXtXtXtX|.!.R.R.Y.R.^.|.eXtXtXtXtXtXtXtXtX3 - 8XtXtXtXtXtXtXtXtXtXtXtXtXtXtXtXtXtXtXtXtXtXtXtXtXtXtXtXi.O tXtXtXtXtXtXtXtXtX",
"tXtXtXtXtXtXtXtXtXtXtXtXtXtXtXtXtXtXtXtXtXtXtXtX, & ^.tXtXtXtXtXtXtXtXtXtXtXtXtXtXtXtXtXtXtXtXtXtXtXtXtXwXO t.tXtXtXtXtXtXtXtXtX",
"tXtXtXtXtXtXtXtXtXtXtXtXtXtXtXtXtXtXtXtXtXtXtXtXtXu # C.tXtXtXtXtXtXtXtXtXtXtXtXtXtXtXtXtXtXtXtXtXtXtXtX3 ; tXtXtXtXtXtXtXtXtXtX",
"tXtXtXtXtXtXtXtXtXtXtXtXtXtXtXtXtXtXtXtXtXtXtXtXtXtX5.O m tXtXtXtXtXtXtXtXtXtXtXtXtXtXtXtXtXtXtXtXtXtXk # wXtXtXtXtXtXtXtXtXtXtX",
"tXtXtXtXtXtXtXtXtXtXtXtXtXtXtXtXtXtXtXtXtXtXtXtXtXtXtXD.% = F.tXtXtXtXtXtXtXtXtXtXtXtXtXtXtXtXtXtXtXf + !.tXtXtXtXtXtXtXtXtXtXtX",
"tXtXtXtXtXtXtXtXtXtXtXtXtXtXtXtXtXtXtXtXtXtXtXtXtXtXtXtXtXv O 8 P.tXtXtXtXtXtXtXtXtXtXtXtXtXtXtXR.- % ^.tXtXtXtXtXtXtXtXtXtXtXtX",
"tXtXtXtXtXtXtXtXtXtXtXtXtXtXtXtXtXtXtXtXtXtXtXtXtXtXtXtXtXtX^.9 O ; a.eXtXtXtXtXtXtXtXtXtXtX!.u o u tXtXtXtXtXtXtXtXtXtXtXtXtXtX",
"tXtXtXtXtXtXtXtXtXtXtXtXtXtXtXtXtXtXtXtXtXtXtXtXtXtXtXtXtXtXtXtX`.m # + ; m B.Y.(._.Y.d.z * o 3 Y.tXtXtXtXtXtXtXtXtXtXtXtXtXtXtX",
"tXtXtXtXtXtXtXtXtXtXtXtXtXtXtXtXtXtXtXtXtXtXtXtXtXtXtXtXtXtXtXtXtXtXtXR.6., $ o X . X % 9 r.8XtXtXtXtXtXtXtXtXtXtXtXtXtXtXtXtXtX",
"tXtXtXtXtXtXtXtXtXtXtXtXtXtXtXtXtXtXtXtXtXtXtXtXtXtXtXtXtXtXtXtXtXtXtXtXtXtXtXtXtXtXtXtXtXtXtXtXtXtXtXtXtXtXtXtXtXtXtXtXtXtXtXtX",
"tXtXtXtXtXtXtXtXtXtXtXtXtXtXtXtXtXtXtXtXtXtXtXtXtXtXtXtXtXtXtXtXtXtXtXtXtXtXtXtXtXtXtXtXtXtXtXtXtXtXtXtXtXtXtXtXtXtXtXtXtXtXtXtX",
"tXtXtXtXtXtXtXtXtXtXtXtXtXtXtXtXtXtXtXtXtXtXtXtXtXtXtXtXtXtXtXtXtXtXtXtXtXtXtXtXtXtXtXtXtXtXtXtXtXtXtXtXtXtXtXtXtXtXtXtXtXtXtXtX",
"tXtXtXtXtXtXtXtXtXtXtXtXtXtXtXtXtXtXtXtXtXtXtXtXtXtXtXtXtXtXtXtXtXtXtXtXtXtXtXtXtXtXtXtXtXtXtXtXtXtXtXtXtXtXtXtXtXtXtXtXtXtXtXtX",
"tXtXtXtXtXtXtXtXtXtXtXtXtXtXtXtXtXtXtXtXtXtXtXtXtXtXtXtXtXtXtXtXtXtXtXtXtXtXtXtXtXtXtXtXtXtXtXtXtXtXtXtXtXtXtXtXtXtXtXtXtXtXtXtX",
"tXtXtXtXtXtXtXtXtXtXtXtXtXtXtXtXtXtXtXtXtXtXtXtXtXtXtXtXtXtXtXtXtXtXtXtXtXtXtXtXtXtXtXtXtXtXtXtXtXtXtXtXtXtXtXtXtXtXtXtXtXtXtXtX",
"tXtXtXtXtXtXtXtXtXtXtXtXtXtXtXtXtXtXtXtXtXtXtXtXtXtXtXtXtXtXtXtXtXtXtXtXtXtXtXtXtXtXtXtXtXtXtXtXtXtXtXtXtXtXtXtXtXtXtXtXtXtXtXtX"
};
