/* XPM */
static const char * matroskalogo_xpm[] = {
"32 32 262 2",
"  	c None",
". 	c #FFFFFF",
"+ 	c #EAE9E8",
"@ 	c #A5A4A3",
"# 	c #706E6A",
"$ 	c #73706C",
"% 	c #74716D",
"& 	c #878683",
"* 	c #C3C2C0",
"= 	c #9C9A96",
"- 	c #6C6A66",
"; 	c #C7C6C3",
"> 	c #DFDDDB",
", 	c #A1A09E",
"' 	c #EBEAE8",
") 	c #E5C2BF",
"! 	c #E3ACAA",
"~ 	c #E6C6C4",
"{ 	c #8B8986",
"] 	c #9F9D9A",
"^ 	c #F2E0DE",
"/ 	c #C53937",
"( 	c #C00303",
"_ 	c #C00000",
": 	c #C00404",
"< 	c #C64744",
"[ 	c #ECDEDB",
"} 	c #DFDDDA",
"| 	c #DBDAD6",
"1 	c #D9D8D5",
"2 	c #EEEEEC",
"3 	c #B1B0AE",
"4 	c #9A9894",
"5 	c #C43A38",
"6 	c #C34A48",
"7 	c #F8F7F6",
"8 	c #E7E6E4",
"9 	c #D5D4D1",
"0 	c #AEADAA",
"a 	c #82817E",
"b 	c #C8C7C5",
"c 	c #F5F4F3",
"d 	c #676562",
"e 	c #E6C9C6",
"f 	c #C00A0A",
"g 	c #F3E9E8",
"h 	c #E2E2E0",
"i 	c #606060",
"j 	c #AFAEAC",
"k 	c #B9B8B6",
"l 	c #D8D6E2",
"m 	c #A2A2D7",
"n 	c #716FB9",
"o 	c #CA9FA8",
"p 	c #E7CFCC",
"q 	c #676766",
"r 	c #F3F2F1",
"s 	c #E6E6EF",
"t 	c #5E5CB6",
"u 	c #0B0BA5",
"v 	c #0000A4",
"w 	c #8B7CAE",
"x 	c #C10F0E",
"y 	c #C21E1D",
"z 	c #E4E4E3",
"A 	c #5D5D5D",
"B 	c #6E6B68",
"C 	c #DEDEED",
"D 	c #2726AA",
"E 	c #3232AC",
"F 	c #C47374",
"G 	c #C00202",
"H 	c #C00606",
"I 	c #C68681",
"J 	c #CDCCCB",
"K 	c #7D7C79",
"L 	c #7C7A78",
"M 	c #EEEDF0",
"N 	c #3130AB",
"O 	c #4D4BAF",
"P 	c #BF8288",
"Q 	c #C53A38",
"R 	c #C2201F",
"S 	c #C53E3C",
"T 	c #E4B6B4",
"U 	c #666460",
"V 	c #9E9D9B",
"W 	c #686867",
"X 	c #E6E6E4",
"Y 	c #74726E",
"Z 	c #8887C7",
"` 	c #0505A4",
" .	c #4C4BB0",
"..	c #A8A7D8",
"+.	c #BDBCDC",
"@.	c #4D4CB0",
"#.	c #0606A4",
"$.	c #1515A7",
"%.	c #5150B1",
"&.	c #6866B4",
"*.	c #7D7CC5",
"=.	c #B7B6B4",
"-.	c #A09E9C",
";.	c #666665",
">.	c #DFDFDE",
",.	c #F8F8F7",
"'.	c #2A29AA",
").	c #0C0BA5",
"!.	c #A3A1CB",
"~.	c #A6A4CC",
"{.	c #0D0DA6",
"].	c #1918A8",
"^.	c #F3F2F3",
"/.	c #6C6B6A",
"(.	c #ECEBE8",
"_.	c #6E6C68",
":.	c #D7D6E0",
"<.	c #0A09A4",
"[.	c #8E8CC8",
"}.	c #9391C8",
"|.	c #1C1BA8",
"1.	c #B8B6BE",
"2.	c #70706E",
"3.	c #7C7B78",
"4.	c #D8D7D4",
"5.	c #767571",
"6.	c #EFEEEC",
"7.	c #CBC9DE",
"8.	c #1E1EA8",
"9.	c #EEEEF0",
"0.	c #201FA9",
"a.	c #0504A4",
"b.	c #5756B0",
"c.	c #8A888E",
"d.	c #646464",
"e.	c #AAA8A6",
"f.	c #BABAB7",
"g.	c #B8B8B6",
"h.	c #D0CFCC",
"i.	c #AEADAB",
"j.	c #BBBAB8",
"k.	c #D2D0DF",
"l.	c #4E4DB0",
"m.	c #7D7AB8",
"n.	c #86849F",
"o.	c #6F6E6D",
"p.	c #7C7B79",
"q.	c #E5E4E3",
"r.	c #D7D5D2",
"s.	c #979696",
"t.	c #B6B5B2",
"u.	c #ECECEA",
"v.	c #73726E",
"w.	c #6968B5",
"x.	c #D6D4D1",
"y.	c #CECCCA",
"z.	c #87859F",
"A.	c #4A48AF",
"B.	c #ECECF0",
"C.	c #848381",
"D.	c #CCCBC9",
"E.	c #C6C6C4",
"F.	c #82807E",
"G.	c #E5E5E4",
"H.	c #8280A3",
"I.	c #5C5C5C",
"J.	c #6A6969",
"K.	c #E0DFDE",
"L.	c #CAC9C7",
"M.	c #7D7C7A",
"N.	c #706F6E",
"O.	c #8A879A",
"P.	c #4E4CAF",
"Q.	c #5452B2",
"R.	c #767470",
"S.	c #E1E1E0",
"T.	c #83827F",
"U.	c #737270",
"V.	c #71706F",
"W.	c #7A7977",
"X.	c #C3C3C1",
"Y.	c #B8B7DA",
"Z.	c #0909A5",
"`.	c #1010A6",
" +	c #DCDCED",
".+	c #929190",
"++	c #656464",
"@+	c #8B8A87",
"#+	c #CFCDCA",
"$+	c #9B9A99",
"%+	c #D2D1CE",
"&+	c #DBDBED",
"*+	c #201FA8",
"=+	c #0A0AA5",
"-+	c #A19FCB",
";+	c #C9C8C6",
">+	c #A2A2A0",
",+	c #6A6968",
"'+	c #BCBCBA",
")+	c #D7D6D3",
"!+	c #FBFBFA",
"~+	c #E2E0DD",
"{+	c #D8D6D4",
"]+	c #A8A7A4",
"^+	c #84827F",
"/+	c #5F5F5F",
"(+	c #7E7D87",
"_+	c #DCDAE1",
":+	c #CECDDE",
"<+	c #8282C6",
"[+	c #1414A7",
"}+	c #969694",
"|+	c #ECEBE9",
"1+	c #9C9B99",
"2+	c #5E5E5E",
"3+	c #636261",
"4+	c #646463",
"5+	c #626262",
"6+	c #666664",
"7+	c #706F6D",
"8+	c #868481",
"9+	c #B9B9B8",
"0+	c #918F90",
"a+	c #92908E",
"b+	c #7E7D7A",
"c+	c #A6A4A2",
"d+	c #BAB8D7",
"e+	c #6C6AB6",
"f+	c #4645AF",
"g+	c #403EAE",
"h+	c #5A59B3",
"i+	c #ADACD9",
"j+	c #676561",
"k+	c #DCDAD6",
"l+	c #DCDAD7",
"m+	c #D6D6D6",
"n+	c #A8A6A3",
"o+	c #B0B0AE",
"p+	c #DADAD8",
"q+	c #65635F",
"r+	c #DEDEDC",
"s+	c #DBDBDB",
"t+	c #706F6C",
"u+	c #E9E8E7",
"v+	c #8F8E8B",
"w+	c #C0BFBC",
"x+	c #666461",
"y+	c #C6C4C2",
"z+	c #6F6D69",
"A+	c #7A7976",
"B+	c #B4B2B0",
"C+	c #D4D2CF",
"D+	c #D3D1CE",
"E+	c #B0AEAD",
"F+	c #6B6966",
"G+	c #93918E",
"H+	c #ECEBEA",
"I+	c #B8B7B5",
"J+	c #959494",
"K+	c #9B9A9A",
"L+	c #BDBCB9",
"M+	c #F1F0EE",
". . . . . . . . . . . . . . . . . . . . . . . . . . . . . . . . ",
". . . . . . . . . . . . . . . . . . . . . . . . . . . . . . . . ",
". . . . . . . . . . . . . . . . . . . . . . . . . . . . . . . . ",
". . . . . . . . . . . . . . . . . . . . . . . . . . . . . . . . ",
". . . . . . . . . . . + @ # $ % # & * . . . . . . . . . . . . . ",
". . . . . . . . . . = - ; . . . . > , - ' ) ! ~ . . . . . . . . ",
". . . . . . . . . { ] . . . . . . . . ^ / ( _ : < [ } | 1 2 . . ",
". . . . . . . . 3 4 . . . . . . . . . 5 _ _ _ _ _ 6 7 8 9 0 a b ",
". . . . . . . c d . . . . . . . . . e : _ _ _ _ _ f g . . . h i ",
". . . . . . . j k . . . . . . l m n o _ _ _ _ _ _ : p . . . . q ",
". . . . . . . # r . . . . s t u v v w x _ _ _ _ _ y . . . . z A ",
". . . . . . . B . . . . C D v v v v E F : _ _ G H I J . . . K L ",
". . . . . . . # . . . M N v v v v v v O P Q R S T . U . . V W X ",
". . . . . . . Y . . . Z v `  ...+...@.#.$.%.&. .*.. =.=.-.;.>.. ",
". . . . . ,.. # . . . '.).!.. . . . . ~.{.v v v ].^.2 a /.h . . ",
". . . . (.r . _.. . :.<.[.. . . . . . . }.v v v |.1.2.3.+ . . . ",
". . . 4.. . . 5.6.. 7.8.9.. . . . . . . ^.0.a.b.c.d.e.f.g.. . . ",
". . h.. . . . i.j.. k.l.. . . . . . . . . m.n.o.p.q.. r.s.. . . ",
". t.r . . . . u.v.. . w.2 x.r . . . . . y.L 2.z.A.B.. . C.. . . ",
"D.E.. . . . . . F.G.. H.;.I.J.K.. . L.M.N.O.P.#.Q.. . . R.. . . ",
"p.,.. . . . . . S.T.. N.I.I.I.U.e.V.W.X.Y.Z.v `. +. . 6..+. . . ",
"++h.. . . . . . . @+#+++I.I.I.i $+%+. &+*+v =+-+. . . ;+>+. . . ",
"M.,+'+)+' !+~+{+;+]+^+/+I.I.I.(+_+:+<+[+v '.+.. . . . }+h.. . . ",
"|+1+q 2+3+4+5+6+7+8+9+0+a+b+c+d+e+f+g+h+i+9.. . . . . j+. . . . ",
". . . k+4.4.l+,.. . . m+_.u.. . . . . . . . . . . . n+o+. . . . ",
". . . . . . . . . . . . p+q+r+. . . . . . . . . . s+t+. . . . . ",
". . . . . . . . . . . . . u+F.v+' . . . . . . . w+x+u.. . . . . ",
". . . . . . . . . . . . . . . y+z+A+B+C+k+D+E+F+G+. . . . . . . ",
". . . . . . . . . . . . . . . . . H+I+$+J+K+L+M+. . . . . . . . ",
". . . . . . . . . . . . . . . . . . . . . . . . . . . . . . . . ",
". . . . . . . . . . . . . . . . . . . . . . . . . . . . . . . . ",
". . . . . . . . . . . . . . . . . . . . . . . . . . . . . . . . "};
