/* XPM */
static char *matroskalogo_big_xpm[] = {
/* columns rows colors chars-per-pixel */
"64 64 256 2",
"   c #343331",
".  c #6B6965",
"X  c #C1BDC4",
"o  c #7D7C7A",
"O  c #918E89",
"+  c #70706E",
"@  c #B1AEBA",
"#  c #7572B7",
"$  c #64625E",
"%  c #3C3BAD",
"&  c #A19E98",
"*  c #4948B0",
"=  c #2D2CAA",
"-  c #A9A7A1",
";  c #969490",
":  c #9C9ABE",
">  c #CE9A94",
",  c #C00A0A",
"<  c #8D8A85",
"1  c #9D9A95",
"2  c #0B0BA5",
"3  c #BDB9C4",
"4  c #858481",
"5  c #6A68B5",
"6  c #A5A29D",
"7  c #0101A3",
"8  c #2322A9",
"9  c #454442",
"0  c #C64744",
"q  c #2D2C2B",
"w  c #989691",
"e  c #CAC6BF",
"r  c #3D3C3A",
"t  c #3433AB",
"y  c #BAB7B0",
"u  c #4241AE",
"i  c #B8B4C3",
"p  c #B2AFA9",
"a  c #6F6D69",
"s  c #A5A2BE",
"d  c #C75956",
"f  c #BAB7BA",
"g  c #5352B1",
"h  c #C8C4BD",
"j  c #B4B1AA",
"k  c #817E7A",
"l  c #CD8984",
"z  c #4D4C49",
"x  c #C6C2BB",
"c  c #7D7AB9",
"v  c #606060",
"b  c #D3C6BE",
"n  c #82817E",
"m  c #7C7A75",
"M  c gray37",
"N  c #BCB9B2",
"B  c #D2CEC8",
"V  c #8A8885",
"C  c #BF0101",
"Z  c #5D5BB3",
"A  c #242322",
"S  c #A6A49E",
"D  c #B8B4AE",
"F  c #8A87BA",
"G  c #CDC9C6",
"H  c #777570",
"J  c #9491BD",
"K  c #B6B3AD",
"L  c #1918A7",
"P  c #CD9791",
"I  c #CECAC6",
"U  c #D0A59E",
"Y  c #C43634",
"T  c #CE938E",
"R  c #6664B4",
"E  c #41403D",
"W  c #C3C0B9",
"Q  c #888784",
"!  c #1515A7",
"~  c #BFBCB5",
"^  c #C11C1B",
"/  c #C10706",
"(  c #646464",
")  c #888681",
"_  c #797672",
"`  c #0505A4",
"'  c #4B4947",
"]  c #A8A59E",
"[  c #A19EBF",
"{  c #9B9995",
"}  c #CC827D",
"|  c #6F6E6D",
" . c #8D8B88",
".. c #C4C1BA",
"X. c #C1BDB6",
"o. c #C9615E",
"O. c #A2A09A",
"+. c #B4B1C2",
"@. c #ADAAC1",
"#. c #C32523",
"$. c #96948E",
"%. c #777674",
"&. c #1211A5",
"*. c #32312F",
"=. c #C5C2BB",
"-. c #C4C0B9",
";. c #B9B6C3",
":. c #C00D0D",
">. c #807F7C",
",. c #555350",
"<. c #615F5C",
"1. c #646463",
"2. c #AFACA5",
"3. c #CB7672",
"4. c #6A6A69",
"5. c #5C5B57",
"6. c #9E9C96",
"7. c #797876",
"8. c #3A3937",
"9. c #5C5B70",
"0. c #C3BFB8",
"q. c #7B79B8",
"w. c #504E4B",
"e. c #BEBBB4",
"r. c #5D5B59",
"t. c #706EB6",
"y. c #AFABA5",
"u. c #ADAAA5",
"i. c #9F9D99",
"p. c #9290BD",
"a. c #8E8BBB",
"s. c #95938F",
"d. c #93918E",
"f. c #646361",
"g. c #0707A4",
"h. c #C21413",
"j. c #0202A3",
"k. c #1C1BA8",
"l. c gray36",
"z. c #5B5B5B",
"x. c #D3CFC7",
"c. c #D2CEC6",
"v. c #5D5D5D",
"b. c #D1CDC5",
"n. c #D0CCC4",
"m. c #CDC9C2",
"M. c #C9C5BE",
"N. c #CFCBC3",
"B. c #CDC9C1",
"V. c #302F2D",
"C. c #B5B2AC",
"Z. c #CECAC3",
"A. c #6B6B6A",
"S. c #BDBAB3",
"D. c #C2BEB7",
"F. c #C0BCB5",
"G. c #CCC8C0",
"H. c #ACA9A4",
"J. c #D2CEC7",
"K. c #54524F",
"L. c #72716F",
"P. c #BEBAB3",
"I. c #C1BEB7",
"U. c #B1AEA7",
"Y. c #B1AEA8",
"T. c #C8C4C5",
"R. c #B1AEC2",
"E. c #383735",
"W. c #C9C6BE",
"Q. c #87847F",
"!. c #CBC7C0",
"~. c #ACA9A2",
"^. c #5F5D59",
"/. c #BCB8B1",
"(. c #595754",
"). c #C7C3BC",
"_. c #D0CCC5",
"`. c #BBB8B1",
"'. c #C5403D",
"]. c #CECAC2",
"[. c #2727AA",
"{. c #C8C5C6",
"}. c #CBC7C6",
"|. c #CCC8C1",
" X c #696968",
".X c #6B6A67",
"XX c #B8B4AD",
"oX c #B9B6AF",
"OX c #B2AFAA",
"+X c #CECBC3",
"@X c #CFC5C0",
"#X c #0F0EA5",
"$X c #908DAD",
"%X c #6C6B6A",
"&X c #A3A19C",
"*X c #C7C4BD",
"=X c #D0CAC3",
"-X c #918FBC",
";X c #7C7B79",
":X c #D4CEC6",
">X c #706E6A",
",X c #B3B1AB",
"<X c #75736F",
"1X c #5C5AA5",
"2X c #CEB0A9",
"3X c #D0CCC7",
"4X c #D3CCC4",
"5X c #ABA8A2",
"6X c #5C5C5D",
"7X c #807EB9",
"8X c #C96E6A",
"9X c #CB706B",
"0X c #A7A4C1",
"qX c #A9A6C0",
"wX c #504EB1",
"eX c #AFABBB",
"rX c #8381BA",
"tX c #282826",
"yX c #D1AFA9",
"uX c #CCBBB8",
"iX c #636175",
"pX c #9C9994",
"aX c #CFCBC5",
"sX c #83807B",
"dX c #85837D",
"fX c #BDB7C0",
"gX c #5856B2",
"hX c #92908B",
"jX c #6967B6",
"kX c #676664",
"lX c #B4B1AE",
"zX c #9794BE",
"xX c #7A7873",
"cX c #7E7B76",
"vX c #9390BB",
"bX c #9996BD",
"nX c #7B7A78",
"mX c #9F9CB7",
"MX c #CB7D78",
"NX c #C11817",
"BX c #D3C1BA",
"VX c #C01E1D",
"CX c #B9B6B6",
"ZX c #7F7DB9",
"AX c #C7B8B9",
"SX c gray38",
"DX c #626261",
"FX c #BAB3BF",
"GX c #C3A9A3",
"HX c #302FAB",
"JX c #CFA7A1",
"KX c #7976B8",
"LX c #CFA19B",
"PX c #0000A4",
"IX c #C00000",
"UX c #D4D0C8",
/* pixels */
"UXUXUXUXUXUXUXUXUXUXUXUXUXUXUXUXUXUXUXUXUXUXUXUXUXUXUXUXUXUXUXUXUXUXUXUXUXUXUXUXUXUXUXUXUXUXUXUXUXUXUXUXUXUXUXUXUXUXUXUXUXUXUXUX",
"UXUXUXUXUXUXUXUXUXUXUXUXUXUXUXUXUXUXUXUXUXUXUXUXUXUXUXUXUXUXUXUXUXUXUXUXUXUXUXUXUXUXUXUXUXUXUXUXUXUXUXUXUXUXUXUXUXUXUXUXUXUXUXUX",
"UXUXUXUXUXUXUXUXUXUXUXUXUXUXUXUXUXUXUXUXUXUXUXUXUXUXUXUXUXUXUXUXUXUXUXUXUXUXUXUXUXUXUXUXUXUXUXUXUXUXUXUXUXUXUXUXUXUXUXUXUXUXUXUX",
"UXUXUXUXUXUXUXUXUXUXUXUXUXUXUXUXUXUXUXUXUXUXUXUXUXUXUXUXUXUXUXUXUXUXUXUXUXUXUXUXUXUXUXUXUXUXUXUXUXUXUXUXUXUXUXUXUXUXUXUXUXUXUXUX",
"UXUXUXUXUXUXUXUXUXUXUXUXUXUXUXUXUXUXUXUXUXUXUXUXUXUXUXUXUXUXUXUXUXUXUXUXUXUXUXUXUXUXUXUXUXUXUXUXUXUXUXUXUXUXUXUXUXUXUXUXUXUXUXUX",
"UXUXUXUXUXUXUXUXUXUXUXUXUXUXUXUXUXUXUXUXUXUXUXUXUXUXUXUXUXUXUXUXUXUXUXUXUXUXUXUXUXUXUXUXUXUXUXUXUXUXUXUXUXUXUXUXUXUXUXUXUXUXUXUX",
"UXUXUXUXUXUXUXUXUXUXUXUXUXUXUXUXUXUXUXUXUXUXUXUXUXUXUXUXUXUXUXUXUXUXUXUXUXUXUXUXUXUXUXUXUXUXUXUXUXUXUXUXUXUXUXUXUXUXUXUXUXUXUXUX",
"UXUXUXUXUXUXUXUXUXUXUXUXUXUXUXUXUXUXUXUXUXUXUXUXUXUXUXUXUXUXUXUXUXUXUXUXUXUXUXUXUXUXUXUXUXUXUXUXUXUXUXUXUXUXUXUXUXUXUXUXUXUXUXUX",
"UXUXUXUXUXUXUXUXUXUXUXUXUXUXUXUXUXUXUXUXUXUXUXUXUXM.] ) >X. . .Xm ; lXZ.UXUXUXUXUXUXUXUXUXUXUXUXUXUXUXUXUXUXUXUXUXUXUXUXUXUXUXUX",
"UXUXUXUXUXUXUXUXUXUXUXUXUXUXUXUXUXUXUXUXUXUXc.- <.  r ,.a k k H $ '     kXS Z.UXUXUXUXUXUXUXUXUXUXUXUXUXUXUXUXUXUXUXUXUXUXUXUXUX",
"UXUXUXUXUXUXUXUXUXUXUXUXUXUXUXUXUXUXUXUXUXp K.  a y.h c.UXUXUXUXUXN.D.6 . E.E < e UXUXUXUXUXUXUXUXUXUXUXUXUXUXUXUXUXUXUXUXUXUXUX",
"UXUXUXUXUXUXUXUXUXUXUXUXUXUXUXUXUXUXUXc.< V..X/.x.UXUXUXUXUXUXUXUXUXUXUXx.W < K.2.b > 8Xd d 3.U 4XUXUXUXUXUXUXUXUXUXUXUXUXUXUXUX",
"UXUXUXUXUXUXUXUXUXUXUXUXUXUXUXUXUXUXb.H   1 c.UXUXUXUXUXUXUXUXUXUXUXUXUXUXUXUX=X> Y , C C C C :.0 yXUXUXUXUXUXUXUXUXUXUXUXUXUXUX",
"UXUXUXUXUXUXUXUXUXUXUXUXUXUXUXUXUXx.k   ~.UXUXUXUXUXUXUXUXUXUXUXUXUXUXUXUXUX:X} h.C IXIXIXIXIXC C #.P W ~ /.oXC.OXC.S.M.x.UXUXUX",
"UXUXUXUXUXUXUXUXUXUXUXUXUXUXUXUXUX6.*.] UXUXUXUXUXUXUXUXUXUXUXUXUXUXUXUXUXUX> h.C IXIXIXIXIXIXIXIXC VXGX....W P.,XO.Q %.>.6 h UX",
"UXUXUXUXUXUXUXUXUXUXUXUXUXUXUXUX..E.< x.UXUXUXUXUXUXUXUXUXUXUXUXUXUXUXUXUXb '.C IXIXIXIXIXIXIXIXIXIXC o.UXUXUXUXUXUXb.N 4 M + p ",
"UXUXUXUXUXUXUXUXUXUXUXUXUXUXUXUX<Xw.m.UXUXUXUXUXUXUXUXUXUXUXUXUXUXUXUXUXUXU :.IXIXIXIXIXIXIXIXIXIXIXC VXb UXUXUXUXUXUXUXN. .z.( ",
"UXUXUXUXUXUXUXUXUXUXUXUXUXUXUXD.q 5XUXUXUXUXUXUXUXUXUXUXUXUXUXUXUXUXUXUXUX} C IXIXIXIXIXIXIXIXIXIXIXIX, JXUXUXUXUXUXUXUXUXM.1.z.",
"UXUXUXUXUXUXUXUXUXUXUXUXUXUXUXk w.N.UXUXUXUXUXUXUXUXUXUXUXUXUXUXx.}.X ;.G 9XC IXIXIXIXIXIXIXIXIXIXIXIX/ > UXUXUXUXUXUXUXUXx.%.l.",
"UXUXUXUXUXUXUXUXUXUXUXUXUXUXc.r $.UXUXUXUXUXUXUXUXUXUXUXUXx.X vXgXt 8 L p.MXC IXIXIXIXIXIXIXIXIXIXIXIX, U UXUXUXUXUXUXUXUXx.L.z.",
"UXUXUXUXUXUXUXUXUXUXUXUXUXUXoXq X.UXUXUXUXUXUXUXUXUXUXUXX KX[.` 7 PXPX7 R LX, IXIXIXIXIXIXIXIXIXIXIXIX^ BXUXUXUXUXUXUXUXUX=.v z.",
"UXUXUXUXUXUXUXUXUXUXUXUXUXUXO ' N.UXUXUXUXUXUXUXUXUXB : HXj.7 PXPXPXPX7 HXAXY IXIXIXIXIXIXIXIXIXIXIXC d UXUXUXUXUXUXUXUXx.d.z.v.",
"UXUXUXUXUXUXUXUXUXUXUXUXUXUX. a UXUXUXUXUXUXUXUXUXaXZX&.7 PXPXPXPXPXPXPX2 vXT :.C IXIXIXIXIXIXIXIXC ^ 2X..UXUXUXUXUXUXUXS.DXz.7.",
"UXUXUXUXUXUXUXUXUXUXUXUXUXUX' O UXUXUXUXUXUXUXUXB q.2 PXPXPXPXPXPXPXPXPX7 = FX3.:.C IXIXIXIXIXC C NXT P.9 !.UXUXUXUXUX|.%.z.DX`.",
"UXUXUXUXUXUXUXUXUXUXUXUXUXUXE.S UXUXUXUXUXUXUXUX-X#XPXPXPXPXPXPXPXPXPXPXPXj.u fXl #./ C C C C , Y U UXB.9 sXUXUXUXUXn.V z.v.1 UX",
"UXUXUXUXUXUXUXUXUXUXUXUXUXx.*.U.UXUXUXUXUXUXUX;.8 7 PXPXPXPX7 7 j.j.7 7 PXPXj.t [ uXl d '.'.o.P @XUXUXUX& q M.UXUXn.d.l.v.V c.UX",
"UXUXUXUXUXUXUXUXUXUXUXUXUXc.  oXUXUXUXUXUXUXJ.Z j.PXPX7 j.&.% R q.c R % &.j.7 7 2 * F +.X X @.c Z G UXUXZ.9 ) UX_.s.l.v.n n.UXUX",
"UXUXUXUXUXUXUXUXUXUXUXUXUX+XV.C.UXUXUXUXUXUXR.! PXPX7 &.R i x.UXUXUXUXx.i jX! 7 PXPX7 ` #X#X` 7 g.J UXUXUXw ,.Z. .l.v.n m.UXUXUX",
"UXUXUXUXUXUXUXUXUXUXUXx.W.W.*.~.UXUXUXUXUXUXt.j.PXPX= 0Xx.UXUXUXUXUXUXUXUXUX@.HXj.PXPXPXPXPXPXPX7 * UXUXUXb.N n z.v.< N.UXUXUXUX",
"UXUXUXUXUXUXUXUXUXUXb.W m.UX9 pXUXUXUXUXUX3Xt 7 7 = ;.UXUXUXUXUXUXUXUXUXUXUXUX3 t PXPXPXPXPXPXPXPXL X UXx./.L.z.v w x.UXUXUXUXUX",
"UXUXUXUXUXUXUXUXUXM.X.x.UXUX5.k UXUXUXUXUX;.L 7 ! @.UXUXUXUXUXUXUXUXUXUXUXUXUXUXR.k.7 PXPXPXPXPX7 2 [ c.6 1.z.1.- UXUXUXUXUXUXUX",
"UXUXUXUXUXUXUXUX~ -.UXUXUXUXxX<.x.UXUXUXUXs 2 7 # x.UXUXUXUXUXUXUXUXUXUXUXUXUXUXUXc j.PXPXPX7 7 g.Z f 4 v.l.%./.e UXUXUXUXUXUXUX",
"UXUXUXUXUXUXc.C.h UXUXUXUXUX6.E B.UXUXUXUXzXg.k.3 UXUXUXUXUXUXUXUXUXUXUXUXUXUXUXUXX 8 PXPXPX7 = : H. Xl.M s.].a Q.UXUXUXUXUXUXUX",
"UXUXUXUXUXn.u.G.UXUXUXUXUXUXX.q e.UXUXUXUXJ ` g J.UXUXUXUXUXUXUXUXUXUXUXUXUXUXUXUXx.Z PX7 &.# f dXv.z.+ K UXUXcXr.UXUXUXUXUXUXUX",
"UXUXUXUXn.S m.UXUXUXUXUXUXUXx.r ; UXUXUXUX: 2 7XUXUXUXUXUXUXUXUXUXUXUXUXUXUXUXUXUXUXF g.wX@ { 1.z.SX; G.UXUXUX& 8.UXUXUXUXUXUXUX",
"UXUXUXn.pX|.UXUXUXUXUXUXUXUXUXm (.c.UXUXUX@.! bXUXUXUXUXUXUXUXUXUXUXUXUXUXUXUXUXUXUX3 s - L.6Xv.o y G UXUXUXUX/.A c.UXUXUXUXUXUX",
"UXUXc.; I.UXUXUXUXUXUXUXUXUXUXj V.X.UXUXUXT.[.: UXUXUXUXUXUXUXUXUXUXUXUXUXUXUXUXUXx.K o M z.+ - s * +.UXUXUXUXx A e UXUXUXUXUXUX",
"UXUXi.S UXUXUXUXUXUXUXUXUXUXUXx.9 V UXUXUXUXg a.x.S.- H.I.c.UXUXUXUXUXUXUXUXUXx.D >.v l.4.6.eXg 2 = aXUXUXUXUXM.tXF.UXUXUXUXUXUX",
"UX`.7._.UXUXUXUXUXUXUXUXUXUXUXUXhXE e UXUXUXzX1X>.SXv.M 1. .h UXUXUXUXUXUXc.C.n v z. X{ @ 5 ! j.j.# UXUXUXUXUXM.tX~ UXUXUXUXUXUX",
"x.7.O.UXUXUXUXUXUXUXUXUXUXUXUXUX!.  w UXUXUXf 9.z.l.l.l.l.v.>.G.UXUXUXm.y.;XSXl.4.w @ t.k.j.7 7 k.3 UXUXUXUXUXM.tXF.UXUXUXUXUXUX",
"Y.l.0.UXUXUXUXUXUXUXUXUXUXUXUXUXUX) 9 e UXUXs.6Xl.l.l.l.l.l.l.6 c.~ w + v v.L.i.).s 8 j.7 PXPX` # UXUXUXUXUXUXh A ).UXUXUXUXUXUX",
"4 M !.UXUXUXUXUXUXUXUXUXUXUXUXUXUXe 8.< UXm.L.l.l.l.l.l.l.l.z.| >.( l.SX>.u.!.UX{.% j.PXPXPX7 % {.UXUXUXUXUXUXe.A b.UXUXUXUXUXUX",
"| l.S.UXUXUXUXUXUXUXUXUXUXUXUXUXUXUXw   P.*X4.l.l.l.l.l.l.l.l.z.l.%XO y N.UXUXaX5 ` PXPXPX7 [.+.UXUXUXUXUXUXUXS   UXUXUXUXUXUXUX",
"A.z.) J.UXUXUXUXUXUXUXUXUXUXUXUXUXUXb.<.k B.+ l.l.l.l.l.l.l.l.%XS x x.UXUXUXG t.2 7 PXPX7 [.qXUXUXUXUXUXUXUXUXk (.UXUXUXUXUXUXUX",
"n z.l.hX=.UXUXUXUXUXUXUXUXUXUXUXUXUXc.P.H.O.4.l.l.l.l.l.l.l.v.& UXUXUXUXJ.@.* g.PXPXPX` u +.UXUXUXUXUXUXUXUXb.w.) UXUXUXUXUXUXUX",
"D f.z.l.A.Q S oX~ -.=...I.N K H.1 V %.A.DXl.z.z.z.l.l.l.l.z.9.mX;.;.@.a.wX! 7 PX7 j.[.q.T.UXUXUXUXUXUXUXUXUXW tXy UXUXUXUXUXUXUX",
"UX2.| l.z.z.l.SXkX X4.4. X( v l.z.z.z.v A.o ; S o v z.z.v n $XgXt 8 ! ` 7 7 ` ! % c 3 UXUXUXUXUXUXUXUXUXUXUX .E x.UXUXUXUXUXUXUX",
"UXUX).O.o A.v v.v.l.l.v.M v  X+ nX .&XD x N.S iXCXj & O.D ].UXI ;.[ F # # rX: +.}.UXUXUXUXUXUXUXUXUXUXUXUXB.E < UXUXUXUXUXUXUXUX",
"UXUXUXUXb.x N C.p Y.Y.p K N W e b.UXUXUXUXUXe r.w.F.UXUXUXUXUXUXUXUXUXUXUXUXUXUXUXUXUXUXUXUXUXUXUXUXUXUXUX$.  G.UXUXUXUXUXUXUXUX",
"UXUXUXUXUXUXUXUXUXUXUXUXUXUXUXUXUXUXUXUXUXUXUXM.5.9 K UXUXUXUXUXUXUXUXUXUXUXUXUXUXUXUXUXUXUXUXUXUXUXUXUXD.  O UXUXUXUXUXUXUXUXUX",
"UXUXUXUXUXUXUXUXUXUXUXUXUXUXUXUXUXUXUXUXUXUXUXUXe . 8.O.c.UXUXUXUXUXUXUXUXUXUXUXUXUXUXUXUXUXUXUXUXUXUXm.^.,.b.UXUXUXUXUXUXUXUXUX",
"UXUXUXUXUXUXUXUXUXUXUXUXUXUXUXUXUXUXUXUXUXUXUXUXUXN.dX*.cXe UXUXUXUXUXUXUXUXUXUXUXUXUXUXUXUXUXUXUXUXZ.L.8.D.UXUXUXUXUXUXUXUXUXUX",
"UXUXUXUXUXUXUXUXUXUXUXUXUXUXUXUXUXUXUXUXUXUXUXUXUXUXx.] E z - b.UXUXUXUXUXUXUXUXUXUXUXUXUXUXUXUXUXe a   j UXUXUXUXUXUXUXUXUXUXUX",
"UXUXUXUXUXUXUXUXUXUXUXUXUXUXUXUXUXUXUXUXUXUXUXUXUXUXUXUXh _ *.<.2.n.UXUXUXUXUXUXUXUXUXUXUXUXUXc.p w.E K UXUXUXUXUXUXUXUXUXUXUXUX",
"UXUXUXUXUXUXUXUXUXUXUXUXUXUXUXUXUXUXUXUXUXUXUXUXUXUXUXUXUXUXK $ *.K.w 0.b.UXUXUXUXUXUXUXUXm.p . V.. ).UXUXUXUXUXUXUXUXUXUXUXUXUX",
"UXUXUXUXUXUXUXUXUXUXUXUXUXUXUXUXUXUXUXUXUXUXUXUXUXUXUXUXUXUXUXUXy m 8.  ,.cX& p XXXXU.1 H ' V.^.U.x.UXUXUXUXUXUXUXUXUXUXUXUXUXUX",
"UXUXUXUXUXUXUXUXUXUXUXUXUXUXUXUXUXUXUXUXUXUXUXUXUXUXUXUXUXUXUXUXUXUXn.p Q.5.r V.q tXq E $ O F.UXUXUXUXUXUXUXUXUXUXUXUXUXUXUXUXUX",
"UXUXUXUXUXUXUXUXUXUXUXUXUXUXUXUXUXUXUXUXUXUXUXUXUXUXUXUXUXUXUXUXUXUXUXUXUXUXUXc.B.B.b.UXUXUXUXUXUXUXUXUXUXUXUXUXUXUXUXUXUXUXUXUX",
"UXUXUXUXUXUXUXUXUXUXUXUXUXUXUXUXUXUXUXUXUXUXUXUXUXUXUXUXUXUXUXUXUXUXUXUXUXUXUXUXUXUXUXUXUXUXUXUXUXUXUXUXUXUXUXUXUXUXUXUXUXUXUXUX",
"UXUXUXUXUXUXUXUXUXUXUXUXUXUXUXUXUXUXUXUXUXUXUXUXUXUXUXUXUXUXUXUXUXUXUXUXUXUXUXUXUXUXUXUXUXUXUXUXUXUXUXUXUXUXUXUXUXUXUXUXUXUXUXUX",
"UXUXUXUXUXUXUXUXUXUXUXUXUXUXUXUXUXUXUXUXUXUXUXUXUXUXUXUXUXUXUXUXUXUXUXUXUXUXUXUXUXUXUXUXUXUXUXUXUXUXUXUXUXUXUXUXUXUXUXUXUXUXUXUX",
"UXUXUXUXUXUXUXUXUXUXUXUXUXUXUXUXUXUXUXUXUXUXUXUXUXUXUXUXUXUXUXUXUXUXUXUXUXUXUXUXUXUXUXUXUXUXUXUXUXUXUXUXUXUXUXUXUXUXUXUXUXUXUXUX",
"UXUXUXUXUXUXUXUXUXUXUXUXUXUXUXUXUXUXUXUXUXUXUXUXUXUXUXUXUXUXUXUXUXUXUXUXUXUXUXUXUXUXUXUXUXUXUXUXUXUXUXUXUXUXUXUXUXUXUXUXUXUXUXUX",
"UXUXUXUXUXUXUXUXUXUXUXUXUXUXUXUXUXUXUXUXUXUXUXUXUXUXUXUXUXUXUXUXUXUXUXUXUXUXUXUXUXUXUXUXUXUXUXUXUXUXUXUXUXUXUXUXUXUXUXUXUXUXUXUX"
};
