/* XPM */
static const char * mkvinfo_xpm[] = {
/* columns rows colors chars-per-pixel */
"32 32 233 2",
"   c #242472",
".  c #505050",
"X  c #585857",
"o  c #5D5D5C",
"O  c #65635F",
"+  c #646463",
"@  c #696766",
"#  c #6C6B6A",
"$  c #706F6E",
"%  c #70706E",
"&  c #737271",
"*  c #7A7976",
"=  c #7C7B7A",
"-  c #A60606",
";  c #B00303",
":  c #BF0000",
">  c #A51211",
",  c #C00101",
"<  c #C00A0A",
"1  c #C21E1D",
"2  c #C2201F",
"3  c #C43937",
"4  c #C53B39",
"5  c #AC6566",
"6  c #C64744",
"7  c #83817E",
"8  c #1E1E98",
"9  c #0101A4",
"0  c #0D0DA5",
"q  c #1515A7",
"w  c #1A1AA8",
"e  c #201FA9",
"r  c #403EAE",
"t  c #2C4780",
"y  c #234688",
"u  c #23498D",
"i  c #2F4F8F",
"p  c #304981",
"a  c #38548E",
"s  c #2C5192",
"d  c #2E5698",
"f  c #345E9E",
"g  c #174CAC",
"h  c #1A53B4",
"j  c #4A5D84",
"k  c #535284",
"l  c #415E97",
"z  c #56678A",
"x  c #4D6494",
"c  c #546C9C",
"v  c #5E7097",
"b  c #666484",
"n  c #696784",
"m  c #7E7D87",
"M  c #6D7992",
"N  c #6F7C98",
"B  c #4645AF",
"V  c #4B49AD",
"C  c #4C4BB0",
"Z  c #5453B1",
"A  c #5A59B2",
"S  c #4C78AF",
"D  c #557BAC",
"F  c #4B77B1",
"G  c #577CB1",
"H  c #677AA1",
"J  c #7674AC",
"K  c #6866B4",
"L  c #6C6AB6",
"P  c #2C5AC6",
"I  c #2B64C6",
"U  c #2662C9",
"Y  c #2865C8",
"T  c #2E6BC8",
"R  c #3461C7",
"E  c #4A6DC7",
"W  c #4B75C9",
"Q  c #7D7CC5",
"!  c #7D869B",
"~  c #508BAC",
"^  c #5E81B4",
"/  c #5486BA",
"(  c #5C87B9",
")  c #7A89A7",
"_  c #659CA7",
"`  c #6E9BA4",
"'  c #729CA3",
"]  c #6184B5",
"[  c #648BBB",
"{  c #4D83C0",
"}  c #4E89CE",
"|  c #5F93C4",
" . c #6994C1",
".. c #6295C8",
"X. c #659CCB",
"o. c #689ECC",
"O. c #6BA0CE",
"+. c #76A7CF",
"@. c #77A8CD",
"#. c #7EB7C2",
"$. c #7EBBC8",
"%. c #6BA7D9",
"&. c #6DACDF",
"*. c #72ACD7",
"=. c #78AFDD",
"-. c #77C5D7",
";. c #838382",
":. c #8A8986",
">. c #86858C",
",. c #8C8B8C",
"<. c #908E8C",
"1. c #93918E",
"2. c #828A9D",
"3. c #918F90",
"4. c #959493",
"5. c #989794",
"6. c #9B9A96",
"7. c #919499",
"8. c #9C9B9A",
"9. c #A09E9C",
"0. c #868FA2",
"q. c #8992A8",
"w. c #8F9EBA",
"e. c #9EA0A2",
"r. c #9BA4B9",
"t. c #A3A3A2",
"y. c #A8A7A4",
"u. c #AAA8A5",
"i. c #ACACAB",
"p. c #B0AFAD",
"a. c #ABADB0",
"s. c #AEB0B1",
"d. c #B5B4B3",
"f. c #B8B7B5",
"g. c #B9B9B6",
"h. c #B8B6BE",
"j. c #BBBBBA",
"k. c #C68681",
"l. c #E3ACAA",
"z. c #E4B6B4",
"x. c #C3C1BF",
"c. c #8282C5",
"v. c #9391C8",
"b. c #8EA4C6",
"n. c #98A8C3",
"m. c #85AFD7",
"M. c #8FB0D7",
"N. c #81B3D9",
"B. c #81B8DE",
"V. c #88BCDE",
"C. c #A6A4CC",
"Z. c #BDBDC7",
"A. c #B0BBCE",
"S. c #ADACD9",
"D. c #A9BAD2",
"F. c #A0BED8",
"G. c #BAB8D7",
"H. c #86C9DA",
"J. c #88CDDF",
"K. c #95D2DF",
"L. c #BFC1C2",
"P. c #B6C4D7",
"I. c #B2C3D9",
"U. c #85C2E3",
"Y. c #8AC5E4",
"T. c #92C3E2",
"R. c #93CCE7",
"E. c #9CCBE6",
"W. c #91CCEA",
"Q. c #93D1E6",
"!. c #96D3EE",
"~. c #9BD3EC",
"^. c #99D7F0",
"/. c #9DDAF2",
"(. c #A1C6E4",
"). c #A1CEE9",
"_. c #A2DCE7",
"`. c #A0D7EF",
"'. c #B8DDEA",
"]. c #A2DBF1",
"[. c #9DE7F9",
"{. c #A5E3F6",
"}. c #ABE4F6",
"|. c #A8E6F8",
" X c #A7EBFA",
".X c #ACEDFC",
"XX c #B4ECF7",
"oX c #B2EEFB",
"OX c #BAEDFB",
"+X c #B6F0FD",
"@X c #BBF2FD",
"#X c #C4C3C3",
"$X c #C8C7C5",
"%X c #C9C8C6",
"&X c #C3C4CB",
"*X c #CBCBCA",
"=X c #D0CFCC",
"-X c #D3D1CE",
";X c #CACAD3",
":X c #CECDDE",
">X c #CED1D2",
",X c #D4D4D3",
"<X c #D8D7D4",
"1X c #DBD9D6",
"2X c #D7D8D8",
"3X c #DDDDDC",
"4X c #E6C6C4",
"5X c #E7CFCC",
"6X c #E0DFDE",
"7X c #ECDEDB",
"8X c #E2E0DD",
"9X c #F2E0DE",
"0X c #DCDAE1",
"qX c #C2E7F6",
"wX c #C4EAF4",
"eX c #C0ECF9",
"rX c #C5F3FD",
"tX c #CBF4FD",
"yX c #D3F6FD",
"uX c #DBF9FE",
"iX c #E4E4E3",
"pX c #E9E8E7",
"aX c #E7E8E9",
"sX c #EBECEB",
"dX c #F3E9E8",
"fX c #F1F0EE",
"gX c #ECECF0",
"hX c #EFF1F2",
"jX c #F4F4F4",
"kX c #F8F7F6",
"lX c #F8F8F7",
"zX c #F7F8F8",
"xX c #FFFFFF",
/* pixels */
"xXxXxXxXxXxXxXxXxXzXzXxXxXxXxXxXxXxXxXxXxXxXxXxXxXxXxXxXxXxXxXxX",
"xXxXxXxXxXzXsXiX<X&X%X,X8XsXzXxXxXxXxXxXxXxXxXxXxXxXxXxXxXxXxXxX",
"xXxXxXxXaX,Xj.! j j a o M a.=XsXxXxXxXxXxXxXxXxXxXxXxXxXxXxXxXxX",
"xXxXxX3Xx.0.p u ] ....[ s t M g.3XxXxXxXxXxXxXxXxXxXxXxXxXxXxXxX",
"xXxX3Xd.N y G +.~.R.R.).@.D u z y.;.#XxXxXxXxXxXxXxXxXxXxXxXxXxX",
"xXkXp.2.y [ V.`.qX].Q.'.~.T. .u M y.6.# sXz.l.4XxXxXxXxXxXxXxXxX",
"xX%X8.a S E.~.}.eXH.J.OX}.`.).( i 7.*X9X4 , , , 6 7X6X1X1XsXxXxX",
"xXy.! d N.~./.}.J.-.[.[.}.`.!.V.f M y.3 , , , , : 6 kXpX,Xi.7 $X",
"aX5.v F W.!.{.}.$. X X.XoX|.^.W./ x 1.; , : , , : < dXxXxXxXiXo ",
"2X4.c | !.{..XK._.+X+X+XoX.X{.U.{ l ,.- , : , , , , 5XxXxXxXxX@ ",
",X1.c o.^.|..X#.+X@X@X@X@X}.&.T h x ,.> , : , , , 1 xXxXxXxXiXo ",
"8X4.H ../.|.OX` tXtXtXtXXXT U Y h c >.5 , : : : < k.*XxXxXxX= = ",
"zX6.q.{ /.}.OX' tXyXyXwXW P P Y g ) b V k.4 2 4 z.xX+ xXxX8.@ iX",
"xXi.t.^ U.}.@X' yXuXuXm.P I } %.F r.k 9 q C K C Q xXf.f.9.@ 6XxX",
"xX3X6.r...!.oX' yXuXuXE R B.{.X.w.6.8XC.0 9 9 9 w jXsX7 # iXxXxX",
"xXxXd.y.n.O.!._ rXyX'.R =.].*.b.f.j.xXxXv.9 9 9 w h.% * pXxXxXxX",
"xXxXxX4.p.A.N.~ R.}.Y.Y H.=.D.d.t.sX2X#XiXe 9 Z ,.+ u.f.f.xXxXxX",
"xXxX=XlXs.t.%XP.F.(.T.M.I.&Xu.s.#Xy.>XaX&XJ 0.$ 5 iXxX,X6.xXxXxX",
"xXd.jXxXxX2Xy.t.i.f.d.a.y.4.*XxX3X. = >XgXd.# 0.P sXxXxX;.xXxXxX",
"*X$XxXxXxXxXxXsX@ i.#Xn o o # 3XjX;.o & #XgXZ.8 C xXxXxX& xXxXxX",
"= kXxXxXxXxXxXxXiX7 xX$ o o o & y.% X + # a.hX;X&XxXxXsX1.xXxXxX",
"+ =XxXxXxXxXxXxXxX:.*X+ o o o o 5.,XxX>.# + e.aX6X,XxX%Xt.xXxXxX",
"= @ j.<XpXlX8X<X$Xy.7 O o o o m 0X:Xc.q   & # 7.iXaX,X5.=XxXxXxX",
"sX8.@ o + + + + $ ;.j.<.' 5 t.G.L B r A S.e.= % ,.2XaX<.xXxXxXxX",
"xXxXxX1X1X<X1XlXxXxXxX,X# sXxXxXxXxXxXxXzXxXd.;.= ;.*XsX,XzXxXxX",
"xXxXxXxXxXxXxXxXxXxXxXxX1XO 1XxXxXxXxXxXxXxXxX#X3.>.= L.sX>XsXxX",
"xXxXxXxXxXxXxXxXxXxXxXxXxXpX7 <.aXxXxXxXxXxXxXxX8.:.7.7 d.iX,XaX",
"xXxXxXxXxXxXxXxXxXxXxXxXxXxXxX#X$ * d.-X1X-Xp.@ 4.2Xt.t.;.i.iX%X",
"xXxXxXxXxXxXxXxXxXxXxXxXxXxXxXxXxXsXf.6.5.6.j.fXzXxXiXy.a.3.t.3X",
"xXxXxXxXxXxXxXxXxXxXxXxXxXxXxXxXxXxXxXxXxXxXxXxXxXxXxXaXd.7.g.xX",
"xXxXxXxXxXxXxXxXxXxXxXxXxXxXxXxXxXxXxXxXxXxXxXxXxXxXxXxXsX$XxXxX",
"xXxXxXxXxXxXxXxXxXxXxXxXxXxXxXxXxXxXxXxXxXxXxXxXxXxXxXxXxXxXxXxX"
};
