/* XPM */
static const char * mkvinfo_xpm[] = {
"32 32 469 2",
"  	c None",
". 	c #FFFFFF",
"+ 	c #FBFCFC",
"@ 	c #AAC3D9",
"# 	c #8EAFD0",
"$ 	c #9AB9D7",
"% 	c #9EBBD9",
"& 	c #92B2D3",
"* 	c #AEC5DB",
"= 	c #F7F8F9",
"- 	c #F6F6F6",
"; 	c #F4F4F4",
"> 	c #F7F7F7",
", 	c #F9F9F9",
"' 	c #FCFCFC",
") 	c #FEFEFE",
"! 	c #BECFDE",
"~ 	c #729BC3",
"{ 	c #97B6DD",
"] 	c #84A9D5",
"^ 	c #82A8D5",
"/ 	c #82A7D4",
"( 	c #85AAD6",
"_ 	c #97B6DC",
": 	c #79A2C8",
"< 	c #768798",
"[ 	c #888888",
"} 	c #A6A6A6",
"| 	c #CFCFCF",
"1 	c #EEEEEE",
"2 	c #F5F5F5",
"3 	c #FBFBFB",
"4 	c #B6C8D9",
"5 	c #6D97C4",
"6 	c #7DA4D3",
"7 	c #78A0D0",
"8 	c #77A0D0",
"9 	c #97B7DB",
"0 	c #77A0CF",
"a 	c #7AA2D1",
"b 	c #769FC9",
"c 	c #596C7E",
"d 	c #7A7A7A",
"e 	c #7F7F7F",
"f 	c #9C9C9C",
"g 	c #D8D8D8",
"h 	c #F1F1F1",
"i 	c #FDFDFD",
"j 	c #30679E",
"k 	c #729DCF",
"l 	c #6C98CA",
"m 	c #6D99CB",
"n 	c #608FC4",
"o 	c #5F8FC4",
"p 	c #6C97C9",
"q 	c #719CCC",
"r 	c #3F74A9",
"s 	c #C2C2C2",
"t 	c #BBBBBB",
"u 	c #989898",
"v 	c #C9C9C9",
"w 	c #F8F8F8",
"x 	c #7792B3",
"y 	c #6695C9",
"z 	c #5F8FC5",
"A 	c #6090C5",
"B 	c #5488C1",
"C 	c #A3BCD9",
"D 	c #A2BBD8",
"E 	c #598BC2",
"F 	c #608FC5",
"G 	c #6F9ACC",
"H 	c #6281A4",
"I 	c #D5D5D5",
"J 	c #D3D3D3",
"K 	c #B3B3B3",
"L 	c #A2A2A2",
"M 	c #C7C7C7",
"N 	c #2B5E95",
"O 	c #578AC1",
"P 	c #5387BE",
"Q 	c #5387BF",
"R 	c #4A80BB",
"S 	c #B7CCE3",
"T 	c #A5BFDD",
"U 	c #ADC5DF",
"V 	c #4B80BA",
"W 	c #5488C0",
"X 	c #3A6CA0",
"Y 	c #E8E8E8",
"Z 	c #E2E2E2",
"` 	c #DBDBDB",
" .	c #C0C0C0",
"..	c #ACACAC",
"+.	c #D0D0D0",
"@.	c #E9DEDE",
"#.	c #E9D5D5",
"$.	c #F1E4E4",
"%.	c #1E568F",
"&.	c #4880BA",
"*.	c #467EB8",
"=.	c #477EB8",
"-.	c #3C77B6",
";.	c #A4BFDC",
">.	c #3271B4",
",.	c #4680BC",
"'.	c #467FB9",
").	c #477EB9",
"!.	c #4F84BD",
"~.	c #2A6098",
"{.	c #F3F3F3",
"].	c #EAEAEA",
"^.	c #E1E1E1",
"/.	c #C3C3C3",
"(.	c #A86D6D",
"_.	c #AD3E3D",
":.	c #A72623",
"<.	c #AA3533",
"[.	c #C67F7E",
"}.	c #F4E9E9",
"|.	c #18518E",
"1.	c #4079B7",
"2.	c #3D77B4",
"3.	c #3D7AB9",
"4.	c #3D7CBE",
"5.	c #2169B3",
"6.	c #3175B8",
"7.	c #4784C2",
"8.	c #3A79B9",
"9.	c #2467AA",
"0.	c #0C549D",
"a.	c #003E82",
"b.	c #EDEDED",
"c.	c #C58787",
"d.	c #A71612",
"e.	c #B92015",
"f.	c #C12819",
"g.	c #B92216",
"h.	c #A4120D",
"i.	c #C27373",
"j.	c #FCFBFB",
"k.	c #0C4685",
"l.	c #004996",
"m.	c #01519F",
"n.	c #065AAB",
"o.	c #0E64B6",
"p.	c #0059B1",
"q.	c #FFFEF7",
"r.	c #FFFDF5",
"s.	c #004CAC",
"t.	c #005AB3",
"u.	c #0056AB",
"v.	c #0052A3",
"w.	c #004C9A",
"x.	c #0B4786",
"y.	c #FAFAFA",
"z.	c #E9DDDD",
"A.	c #B74341",
"B.	c #BE2216",
"C.	c #D23621",
"D.	c #D93F26",
"E.	c #D33922",
"F.	c #BD2518",
"G.	c #A6211E",
"H.	c #E7CBCB",
"I.	c #6C8AAB",
"J.	c #0051A2",
"K.	c #0154A5",
"L.	c #005BB1",
"M.	c #0062BB",
"N.	c #0051B6",
"O.	c #FFFAF2",
"P.	c #0053B7",
"Q.	c #0065C0",
"R.	c #005EB6",
"S.	c #0057AB",
"T.	c #0055A8",
"U.	c #6987A8",
"V.	c #E7E7EE",
"W.	c #D0D3E5",
"X.	c #C0C5E0",
"Y.	c #B6A3BD",
"Z.	c #AE2322",
"`.	c #C82B1B",
" +	c #DA4026",
".+	c #E1492B",
"++	c #DD4328",
"@+	c #C92F1D",
"#+	c #A81712",
"$+	c #DDB2B2",
"%+	c #F8F8F9",
"&+	c #004589",
"*+	c #0159AE",
"=+	c #015FB7",
"-+	c #005DBB",
";+	c #7DA8D1",
">+	c #FEF7F1",
",+	c #7DA7D0",
"'+	c #005FC0",
")+	c #0063BD",
"!+	c #005EB4",
"~+	c #00458A",
"{+	c #B5BAD9",
"]+	c #969FD6",
"^+	c #848FD3",
"/+	c #818CD2",
"(+	c #847EBD",
"_+	c #A5252F",
":+	c #C42619",
"<+	c #D63A23",
"[+	c #D83E25",
"}+	c #C62A1B",
"|+	c #A91C17",
"1+	c #CEABAB",
"2+	c #EFEFEF",
"3+	c #A2B2C4",
"4+	c #004F9A",
"5+	c #0165C0",
"6+	c #0060C1",
"7+	c #88B4DC",
"8+	c #76ACDC",
"9+	c #76ADDE",
"0+	c #88B4DD",
"a+	c #0064C6",
"b+	c #006AC6",
"c+	c #0047A9",
"d+	c #677CA8",
"e+	c #7A85CB",
"f+	c #7A86CC",
"g+	c #914768",
"h+	c #B61811",
"i+	c #C7291A",
"j+	c #CE311F",
"k+	c #C92C1C",
"l+	c #B51A12",
"m+	c #B65352",
"n+	c #D0C7C7",
"o+	c #CECECE",
"p+	c #BEBEBE",
"q+	c #A9A9A9",
"r+	c #B0B0B0",
"s+	c #9FAFC2",
"t+	c #004991",
"u+	c #0069C7",
"v+	c #0071D9",
"w+	c #0079E6",
"x+	c #007EEA",
"y+	c #0076E0",
"z+	c #0061D7",
"A+	c #004B91",
"B+	c #6379A4",
"C+	c #727EC4",
"D+	c #737EC5",
"E+	c #7774B4",
"F+	c #913D5B",
"G+	c #AC1B1D",
"H+	c #B41914",
"I+	c #AD1817",
"J+	c #A13D41",
"K+	c #C6A6A6",
"L+	c #878787",
"M+	c #848484",
"N+	c #F2F3F5",
"O+	c #6182A5",
"P+	c #044E93",
"Q+	c #015199",
"R+	c #00539A",
"S+	c #035095",
"T+	c #507392",
"U+	c #A0A6C0",
"V+	c #6C77BB",
"W+	c #6A75BC",
"X+	c #717BBA",
"Y+	c #8B92BF",
"Z+	c #A0A6C8",
"`+	c #A4AACD",
" @	c #939BCA",
".@	c #747EBF",
"+@	c #6B73B9",
"@@	c #755E96",
"#@	c #7B5384",
"$@	c #75598D",
"%@	c #74729C",
"&@	c #B3B3B7",
"*@	c #DFDFDF",
"=@	c #A5A5A5",
"-@	c #5E5E5E",
";@	c #C4C4C4",
">@	c #7D7D7D",
",@	c #B5B5B5",
"'@	c #B8B9BB",
")@	c #7B83B3",
"!@	c #606CB2",
"~@	c #727AAB",
"{@	c #A0A3B6",
"]@	c #C8C8C9",
"^@	c #D7D7D7",
"/@	c #E0E0E0",
"(@	c #E3E3E5",
"_@	c #C0C3D9",
":@	c #838BC1",
"<@	c #5A64A3",
"[@	c #8B8E9F",
"}@	c #CCCCCC",
"|@	c #F0F0F0",
"1@	c #818181",
"2@	c #9D9D9D",
"3@	c #C1C1C1",
"4@	c #BCBCBC",
"5@	c #B7B9C3",
"6@	c #616BA9",
"7@	c #5F689F",
"8@	c #9194A2",
"9@	c #BDBDBD",
"0@	c #D2D2D2",
"a@	c #D9D9D9",
"b@	c #E7E7E7",
"c@	c #C2C6D9",
"d@	c #6A74B0",
"e@	c #5662A8",
"f@	c #525D9F",
"g@	c #6C718E",
"h@	c #BABABA",
"i@	c #E4E4E4",
"j@	c #A3A3A3",
"k@	c #9A9A9A",
"l@	c #DEDEDE",
"m@	c #D6D6D6",
"n@	c #8F8F8F",
"o@	c #AAAAAA",
"p@	c #A6A9B7",
"q@	c #515C9D",
"r@	c #696E8E",
"s@	c #A4A4A4",
"t@	c #B9B9B9",
"u@	c #CACACA",
"v@	c #939ABF",
"w@	c #4C579D",
"x@	c #495497",
"y@	c #585F81",
"z@	c #AAAAAB",
"A@	c #BFBFBF",
"B@	c #B4B4B4",
"C@	c #CDCDCD",
"D@	c #D1D1D1",
"E@	c #8B8B8B",
"F@	c #9DA0AE",
"G@	c #48528E",
"H@	c #6F7180",
"I@	c #B1B1B1",
"J@	c #AFB3C9",
"K@	c #455094",
"L@	c #414C92",
"M@	c #3E498B",
"N@	c #515676",
"O@	c #888889",
"P@	c #C5C5C5",
"Q@	c #7B7B7B",
"R@	c #9A9CA5",
"S@	c #454E84",
"T@	c #696B77",
"U@	c #B2B2B2",
"V@	c #B0B3C5",
"W@	c #424C87",
"X@	c #535A81",
"Y@	c #5F616D",
"Z@	c #959595",
"`@	c #F2F2F2",
" #	c #DCDCDC",
".#	c #828282",
"+#	c #8D8D90",
"@#	c #555C84",
"##	c #696C79",
"$#	c #8D8D8D",
"%#	c #979797",
"&#	c #9B9DAB",
"*#	c #525980",
"=#	c #50567C",
"-#	c #3E4469",
";#	c #4F515E",
">#	c #DDDDDD",
",#	c #626262",
"'#	c #A1A1A1",
")#	c #767676",
"!#	c #777982",
"~#	c #646465",
"{#	c #686868",
"]#	c #838383",
"^#	c #AEAEAE",
"/#	c #A8A8A8",
"(#	c #9FA0A2",
"_#	c #555B7F",
":#	c #303A74",
"<#	c #202B6A",
"[#	c #343A5E",
"}#	c #656568",
"|#	c #636363",
"1#	c #CBCBCB",
"2#	c #737373",
"3#	c #616161",
"4#	c #424242",
"5#	c #575757",
"6#	c #8A8A8A",
"7#	c #696E8D",
"8#	c #1C276B",
"9#	c #182264",
"0#	c #1F2756",
"a#	c #5A5C6A",
"b#	c #7C7C7C",
"c#	c #8E8E8E",
"d#	c #C6C6C6",
"e#	c #525252",
"f#	c #242424",
"g#	c #222222",
"h#	c #232323",
"i#	c #3B3B3E",
"j#	c #707074",
"k#	c #818286",
"l#	c #757785",
"m#	c #4C5277",
"n#	c #172162",
"o#	c #101A58",
"p#	c #1D2451",
"q#	c #4F5263",
"r#	c #DADADA",
"s#	c #D4D4D4",
"t#	c #757575",
"u#	c #474747",
"v#	c #2C2C2C",
"w#	c #2D2D2F",
"x#	c #2B2F46",
"y#	c #1F2752",
"z#	c #1D2555",
"A#	c #141C54",
"B#	c #0A144F",
"C#	c #121A4C",
"D#	c #303554",
"E#	c #5F606C",
"F#	c #939393",
"G#	c #9E9E9E",
"H#	c #727272",
"I#	c #9F9F9F",
"J#	c #8B8B8F",
"K#	c #676977",
"L#	c #515467",
"M#	c #4A4D62",
"N#	c #525565",
"O#	c #696A73",
"P#	c #E6E6E6",
"Q#	c #EBEBEB",
"R#	c #7E7E7E",
"S#	c #ADADAD",
"T#	c #E3E3E3",
"U#	c #ECECEC",
"V#	c #999999",
"W#	c #9B9B9B",
"X#	c #6E6E6E",
"Y#	c #797979",
"Z#	c #B7B7B7",
"`#	c #6F6F6F",
" $	c #535353",
".$	c #5F5F5F",
"+$	c #707070",
"@$	c #6A6A6A",
"#$	c #595959",
"$$	c #808080",
"%$	c #A7A7A7",
"&$	c #777777",
"*$	c #A0A0A0",
". . . . + @ # $ % & * = - ; > , ' ) . . . . . . . . . . . . . . ",
". . . ! ~ { ] ^ / ( _ : < [ } | 1 2 3 ) . . . . . . . . . . . . ",
". . 4 5 6 7 8 9 9 8 0 a b c d e f g h , i . . . . . . . . . . . ",
". . j k l m n . . o m p q r s t u u v 1 w i . . . . . . . . . . ",
". x y z z A B C D E F z o G H I J K L M 1 w i . . . . . . . . . ",
". N O P Q R S T U V P P P W X Y Z `  ...+.@.#.$.. . . . . . . . ",
". %.&.*.=.-.;.. . >.,.'.).!.~., {.].^./.(._.:.<.[.}.. . . . . . ",
". |.1.2.3.4.5.. . 6.7.8.9.0.a.. ' > b.c.d.e.f.g.h.i.j.. . . . . ",
". k.l.m.n.o.p.q.r.s.t.u.v.w.x.i y.- z.A.B.C.D.E.F.G.H.. . . . . ",
". I.J.K.L.M.N.O.O.P.Q.R.S.T.U.V.W.X.Y.Z.`. +.+++@+#+$+. . . . . ",
". %+&+*+=+-+;+>+>+,+'+)+!+~+{+]+^+/+(+_+:+<+++[+}+|+1+].2+w . . ",
". . 3+4+5+6+7+8+9+0+a+b+c+d+e+f+f+f+f+g+h+i+j+k+l+m+n+o+p+q+r+].",
". . . s+t+u+v+w+x+y+z+A+B+C+D+D+D+D+D+E+F+G+H+I+J+K+1 ' i ^.L+M+",
". . . . N+O+P+Q+R+S+T+U+V+W+X+Y+Z+`+ @.@+@@@#@$@%@&@*@- . . =@-@",
". . . . . i h ;@>@,@'@)@!@~@{@]@^@/@(@_@:@!@!@!@<@[@}@1 i |@1@2@",
". . . . . , I 3@1@4@5@6@7@8@9@v 0@a@^.b@c@d@e@e@f@g@h@i@b.j@k@h ",
". . . . l@^@m@^.n@o@p@q@r@s@t@s u@0@a@^.b@v@w@w@x@y@z@A@o@B@> . ",
". . > C@D@- , ].=@E@F@G@H@j@I@h@s u@0@a@^.J@K@L@M@N@O@s@o+. . . ",
". 1 4@C@. . 3 1 P@Q@R@S@T@f o@U@h@s u@0@a@V@M@W@X@Y@Z@}@`@. . . ",
"' j@4@. . . i {. #.#+#@###$#%#} U@h@s v }@&#*#=#-#;#2@0@h ) . . ",
">#,#I . . . . > b@'#)#!#~#,#{#]#=@^#../#(#_#:#<#[#}#'#^@`@) . . ",
"i@|#[ /@' . . 3 1 1#2#3#4#4#4#5#6#%#2@s@7#8#9#0#a#b#o@ #`@i . . ",
". +.c#[ L t@/.d# .B@L+e#f#g#h#i#j#k#l#m#n#o#p#q#n@n@B@^.{.i . . ",
". . 3 b./@a@I g r#s#9@t#u#v#w#x#y#z#A#B#C#D#E#F#r+G#p+i@{.i . . ",
". . . . . . . . i {./@f H#I#I#J#K#L#M#N#O#[ '#t C@=@d#P#{.i . . ",
". . . . . . . . . , Q#0@R#L+ .9@B@o@s@=@S#t o+># #'#| P#{.i . . ",
". . . . . . . . . i ; i@h@)#G#D@m@I s#I r#T#U#2++.V#I P#; ) . . ",
". . . . . . . . . . 3 2+l@=@)#q+l@Y 1 `@2 w , h L G#a@Y - ) . . ",
". . . . . . . . . . ) w Q#a@W#X#2@>#1 - 3 3 2 s b#4@r#Q#, . . . ",
". . . . . . . . . . . i 2 b@m@I#|#Y#,@ #Y b@Z#`#c#o+l@|@' . . . ",
". . . . . . . . . . . . ' ; P#I r+H# $.$+$@$#$$$/.J P#- ) . . . ",
". . . . . . . . . . . . . 3 ; b@^@P@%$L+&$1@*$ .o+*@h 3 . . . . "};
