/* XPM */
static const char * mkvmergeGUI_xpm[] = {
"32 32 334 2",
"  	c None",
". 	c #FFFFFF",
"+ 	c #FDFDFD",
"@ 	c #FBFBFB",
"# 	c #F6F6F6",
"$ 	c #F4F4F4",
"% 	c #F7F7F7",
"& 	c #F9F9F9",
"* 	c #FCFCFC",
"= 	c #FEFEFE",
"- 	c #FAFAFA",
"; 	c #E7E7E7",
"> 	c #AFAFAF",
", 	c #898989",
"' 	c #888888",
") 	c #A6A6A6",
"! 	c #CFCFCF",
"~ 	c #EEEEEE",
"{ 	c #F5F5F5",
"] 	c #D2D2D2",
"^ 	c #6D6D6D",
"/ 	c #404040",
"( 	c #5F5F5F",
"_ 	c #757575",
": 	c #7A7A7A",
"< 	c #7F7F7F",
"[ 	c #9C9C9C",
"} 	c #D8D8D8",
"| 	c #F1F1F1",
"1 	c #E6E6E6",
"2 	c #717171",
"3 	c #505050",
"4 	c #919191",
"5 	c #B3B3B3",
"6 	c #BCBCBC",
"7 	c #C2C2C2",
"8 	c #BBBBBB",
"9 	c #989898",
"0 	c #C9C9C9",
"a 	c #F8F8F8",
"b 	c #A7A7A7",
"c 	c #B8B8B8",
"d 	c #C1C1C1",
"e 	c #CCCCCC",
"f 	c #D3D3D3",
"g 	c #D5D5D5",
"h 	c #A2A2A2",
"i 	c #C7C7C7",
"j 	c #7B7B7B",
"k 	c #BABABA",
"l 	c #C5C5C5",
"m 	c #D7D7D7",
"n 	c #E5E5E5",
"o 	c #EAEAEA",
"p 	c #E8E8E8",
"q 	c #E2E2E2",
"r 	c #DBDBDB",
"s 	c #C0C0C0",
"t 	c #ACACAC",
"u 	c #D0D0D0",
"v 	c #E9DEDE",
"w 	c #E9D5D5",
"x 	c #F1E4E4",
"y 	c #5D5D5D",
"z 	c #A5A5A5",
"A 	c #C4C4C4",
"B 	c #EDEDED",
"C 	c #F3F3F3",
"D 	c #E1E1E1",
"E 	c #C3C3C3",
"F 	c #A86D6D",
"G 	c #AD3E3D",
"H 	c #A72623",
"I 	c #AA3533",
"J 	c #C67F7E",
"K 	c #F4E9E9",
"L 	c #B6B6B6",
"M 	c #626262",
"N 	c #B9B9B9",
"O 	c #C58787",
"P 	c #A71612",
"Q 	c #B92015",
"R 	c #C12819",
"S 	c #B92216",
"T 	c #A4120D",
"U 	c #C27373",
"V 	c #FCFBFB",
"W 	c #A3A3A3",
"X 	c #707070",
"Y 	c #D9D9D9",
"Z 	c #EFEFEF",
"` 	c #E9DDDD",
" .	c #B74341",
"..	c #BE2216",
"+.	c #D23621",
"@.	c #D93F26",
"#.	c #D33922",
"$.	c #BD2518",
"%.	c #A6211E",
"&.	c #E7CBCB",
"*.	c #999999",
"=.	c #7D7D7D",
"-.	c #CACACA",
";.	c #DFDFDF",
">.	c #E7E7EE",
",.	c #D0D3E5",
"'.	c #C0C5E0",
").	c #B6A3BD",
"!.	c #AE2322",
"~.	c #C82B1B",
"{.	c #DA4026",
"].	c #E1492B",
"^.	c #DD4328",
"/.	c #C92F1D",
"(.	c #A81712",
"_.	c #DDB2B2",
":.	c #ECECEC",
"<.	c #979797",
"[.	c #848484",
"}.	c #CDCDCD",
"|.	c #EAEBEF",
"1.	c #BBC0DF",
"2.	c #969FD6",
"3.	c #848FD3",
"4.	c #818CD2",
"5.	c #847EBD",
"6.	c #A5252F",
"7.	c #C42619",
"8.	c #D63A23",
"9.	c #D83E25",
"0.	c #C62A1B",
"a.	c #A91C17",
"b.	c #CEABAB",
"c.	c #9D9D9D",
"d.	c #878787",
"e.	c #E4E4E4",
"f.	c #F2F2F2",
"g.	c #E0E2EA",
"h.	c #A4ABD5",
"i.	c #7A85CB",
"j.	c #7A86CC",
"k.	c #914768",
"l.	c #B61811",
"m.	c #C7291A",
"n.	c #CE311F",
"o.	c #C92C1C",
"p.	c #B51A12",
"q.	c #B65352",
"r.	c #D0C7C7",
"s.	c #CECECE",
"t.	c #BEBEBE",
"u.	c #A9A9A9",
"v.	c #B0B0B0",
"w.	c #A8A8A8",
"x.	c #E4E4E6",
"y.	c #A1A8D1",
"z.	c #727EC4",
"A.	c #737EC5",
"B.	c #7774B4",
"C.	c #913D5B",
"D.	c #AC1B1D",
"E.	c #B41914",
"F.	c #AD1817",
"G.	c #A13D41",
"H.	c #C6A6A6",
"I.	c #B7B7B7",
"J.	c #818181",
"K.	c #A9AEC7",
"L.	c #6C77BB",
"M.	c #6A75BC",
"N.	c #717BBA",
"O.	c #8B92BF",
"P.	c #A0A6C8",
"Q.	c #A4AACD",
"R.	c #939BCA",
"S.	c #747EBF",
"T.	c #6B73B9",
"U.	c #755E96",
"V.	c #7B5384",
"W.	c #75598D",
"X.	c #74729C",
"Y.	c #B3B3B7",
"Z.	c #5E5E5E",
"`.	c #B5B5B5",
" +	c #B8B9BB",
".+	c #7B83B3",
"++	c #606CB2",
"@+	c #727AAB",
"#+	c #A0A3B6",
"$+	c #C8C8C9",
"%+	c #E0E0E0",
"&+	c #E3E3E5",
"*+	c #C0C3D9",
"=+	c #838BC1",
"-+	c #5A64A3",
";+	c #8B8E9F",
">+	c #F0F0F0",
",+	c #B7B9C3",
"'+	c #616BA9",
")+	c #5F689F",
"!+	c #9194A2",
"~+	c #BDBDBD",
"{+	c #C2C6D9",
"]+	c #6A74B0",
"^+	c #5662A8",
"/+	c #525D9F",
"(+	c #6C718E",
"_+	c #9A9A9A",
":+	c #DEDEDE",
"<+	c #D6D6D6",
"[+	c #8F8F8F",
"}+	c #AAAAAA",
"|+	c #A6A9B7",
"1+	c #515C9D",
"2+	c #696E8E",
"3+	c #A4A4A4",
"4+	c #939ABF",
"5+	c #4C579D",
"6+	c #495497",
"7+	c #585F81",
"8+	c #AAAAAB",
"9+	c #BFBFBF",
"0+	c #B4B4B4",
"a+	c #D1D1D1",
"b+	c #8B8B8B",
"c+	c #9DA0AE",
"d+	c #48528E",
"e+	c #6F7180",
"f+	c #B1B1B1",
"g+	c #AFB3C9",
"h+	c #455094",
"i+	c #414C92",
"j+	c #3E498B",
"k+	c #515676",
"l+	c #888889",
"m+	c #9A9CA5",
"n+	c #454E84",
"o+	c #696B77",
"p+	c #B2B2B2",
"q+	c #B0B3C5",
"r+	c #424C87",
"s+	c #535A81",
"t+	c #5F616D",
"u+	c #959595",
"v+	c #DCDCDC",
"w+	c #828282",
"x+	c #8D8D90",
"y+	c #555C84",
"z+	c #696C79",
"A+	c #8D8D8D",
"B+	c #9B9DAB",
"C+	c #525980",
"D+	c #50567C",
"E+	c #3E4469",
"F+	c #4F515E",
"G+	c #DDDDDD",
"H+	c #A1A1A1",
"I+	c #767676",
"J+	c #777982",
"K+	c #646465",
"L+	c #686868",
"M+	c #838383",
"N+	c #AEAEAE",
"O+	c #9FA0A2",
"P+	c #555B7F",
"Q+	c #303A74",
"R+	c #202B6A",
"S+	c #343A5E",
"T+	c #656568",
"U+	c #636363",
"V+	c #CBCBCB",
"W+	c #737373",
"X+	c #616161",
"Y+	c #424242",
"Z+	c #575757",
"`+	c #8A8A8A",
" @	c #696E8D",
".@	c #1C276B",
"+@	c #182264",
"@@	c #1F2756",
"#@	c #5A5C6A",
"$@	c #7C7C7C",
"%@	c #8E8E8E",
"&@	c #C6C6C6",
"*@	c #525252",
"=@	c #242424",
"-@	c #222222",
";@	c #232323",
">@	c #3B3B3E",
",@	c #707074",
"'@	c #818286",
")@	c #757785",
"!@	c #4C5277",
"~@	c #172162",
"{@	c #101A58",
"]@	c #1D2451",
"^@	c #4F5263",
"/@	c #DADADA",
"(@	c #D4D4D4",
"_@	c #474747",
":@	c #2C2C2C",
"<@	c #2D2D2F",
"[@	c #2B2F46",
"}@	c #1F2752",
"|@	c #1D2555",
"1@	c #141C54",
"2@	c #0A144F",
"3@	c #121A4C",
"4@	c #303554",
"5@	c #5F606C",
"6@	c #939393",
"7@	c #9E9E9E",
"8@	c #727272",
"9@	c #9F9F9F",
"0@	c #8B8B8F",
"a@	c #676977",
"b@	c #515467",
"c@	c #4A4D62",
"d@	c #525565",
"e@	c #696A73",
"f@	c #EBEBEB",
"g@	c #7E7E7E",
"h@	c #ADADAD",
"i@	c #E3E3E3",
"j@	c #9B9B9B",
"k@	c #6E6E6E",
"l@	c #797979",
"m@	c #6F6F6F",
"n@	c #535353",
"o@	c #6A6A6A",
"p@	c #595959",
"q@	c #808080",
"r@	c #777777",
"s@	c #A0A0A0",
". . . . . . . . . . + @ # $ % & * = . . . . . . . . . . . . . . ",
". . . . . . . . = - ; > , ' ) ! ~ { @ = . . . . . . . . . . . . ",
". . . . . . . = & ] ^ / ( _ : < [ } | & + . . . . . . . . . . . ",
". . . . . . . @ 1 2 3 4 5 6 7 8 9 9 0 ~ a + . . . . . . . . . . ",
". . . . . . = # b 3 9 c d e f g f 5 h i ~ a + . . . . . . . . . ",
". . . . . . * ; 2 j k l m n o p q r s t u v w x . . . . . . . . ",
". . . . . . a ! y z A } B a @ & C o D E F G H I J K . . . . . . ",
". . . . . = $ L M N u ; & = . . * % B O P Q R S T U V . . . . . ",
". . . . . + | W X E Y Z + . . + - # `  ...+.@.#.$.%.&.. . . . . ",
". . . . . + ~ *.=.-.;.$ = * a >.,.'.).!.~.{.].^./.(._.. . . . . ",
". . . . . * :.<.[.}.q { - |.1.2.3.4.5.6.7.8.^.9.0.a.b.o Z a . . ",
". . . . . * :.c.d.u e.f.g.h.i.j.j.j.j.k.l.m.n.o.p.q.r.s.t.u.v.o ",
". . . . . * B w.[.u q x.y.z.A.A.A.A.A.B.C.D.E.F.G.H.~ * + D d.[.",
". . . . . + ~ I.J.s.u K.L.M.N.O.P.Q.R.S.T.U.V.W.X.Y.;.# . . z Z.",
". . . . . + | A =.`. +.+++@+#+$+m %+&+*+=+++++++-+;+e ~ + >+J.c.",
". . . . . & g d J.6 ,+'+)+!+~+0 ] Y D ; {+]+^+^+/+(+k e.B W _+| ",
". . . . :+m <+D [+}+|+1+2+3+N 7 -.] Y D ; 4+5+5+6+7+8+9+}+0+% . ",
". . % }.a+# & o z b+c+d+e+W f+k 7 -.] Y D g+h+i+j+k+l+3+s.. . . ",
". ~ 6 }.. . @ ~ l j m+n+o+[ }+p+k 7 -.] Y q+j+r+s+t+u+e f.. . . ",
"* W 6 . . . + C v+w+x+y+z+A+<.) p+k 7 0 e B+C+D+E+F+c.] | = . . ",
"G+M g . . . . % ; H+I+J+K+M L+M+z N+t w.O+P+Q+R+S+T+H+m f.= . . ",
"e.U+' %+* . . @ ~ V+W+X+Y+Y+Y+Z+`+<.c.3+ @.@+@@@#@$@}+v+f.+ . . ",
". u %@' h N E &@s 0+d.*@=@-@;@>@,@'@)@!@~@{@]@^@[+[+0+D C + . . ",
". . @ B %+Y g } /@(@~+_ _@:@<@[@}@|@1@2@3@4@5@6@v.7@t.e.C + . . ",
". . . . . . . . + C %+[ 8@9@9@0@a@b@c@d@e@' H+8 }.z &@1 C + . . ",
". . . . . . . . . & f@] g@d.s ~+0+}+3+z h@8 s.G+v+H+! 1 C + . . ",
". . . . . . . . . + $ e.k I+7@a+<+g (@g /@i@:.Z u *.g 1 $ = . . ",
". . . . . . . . . . @ Z :+z I+u.:+p ~ f.{ a & | h 7@Y p # = . . ",
". . . . . . . . . . = a f@Y j@k@c.G+~ # @ @ { 7 $@6 /@f@& . . . ",
". . . . . . . . . . . + { ; <+9@U+l@`.v+p ; I.m@%@s.:+>+* . . . ",
". . . . . . . . . . . . * $ 1 g v.8@n@( X o@p@q@E f 1 # = . . . ",
". . . . . . . . . . . . . @ $ ; m l b d.r@J.s@s s.;.| @ . . . . "};
